<svg xmlns="http://www.w3.org/2000/svg" width="212" height="212" viewBox="0 0 212 212"><switch><g><g fill="#605F5E"><path d="M157.658 119.555a1.649 1.649 0 0 0 2.178-.835l1.667-3.743a1.65 1.65 0 0 0-3.014-1.344l-1.667 3.744a1.649 1.649 0 0 0 .836 2.178zM169.368 121.539a1.65 1.65 0 1 0-2.207-2.452l-3.045 2.739a1.65 1.65 0 1 0 2.208 2.451l3.044-2.738zM167.908 130.939a1.652 1.652 0 0 0 2.08 1.06l3.896-1.267a1.651 1.651 0 0 0 1.061-2.078 1.653 1.653 0 0 0-2.08-1.06l-3.896 1.267a1.652 1.652 0 0 0-1.061 2.078zM174.613 137.688l-4.074-.427a1.65 1.65 0 0 0-.342 3.279l4.074.427a1.649 1.649 0 0 0 .342-3.279zM172.109 147.617l-3.547-2.048a1.65 1.65 0 1 0-1.65 2.858l3.547 2.047a1.652 1.652 0 0 0 2.252-.603 1.65 1.65 0 0 0-.602-2.254zM131.437 145.569l-3.547 2.048a1.65 1.65 0 0 0 1.649 2.857l3.547-2.047a1.65 1.65 0 1 0-1.649-2.858zM131.272 138.728a1.65 1.65 0 0 0-1.812-1.467l-4.074.427a1.65 1.65 0 0 0-1.469 1.812 1.651 1.651 0 0 0 1.813 1.467l4.074-.427a1.649 1.649 0 0 0 1.468-1.812zM126.114 130.732l3.896 1.267a1.656 1.656 0 0 0 2.08-1.06 1.65 1.65 0 0 0-1.06-2.078l-3.897-1.267a1.65 1.65 0 0 0-1.019 3.138zM132.838 119.087a1.65 1.65 0 1 0-2.207 2.452l3.045 2.738a1.652 1.652 0 0 0 2.331-.122 1.65 1.65 0 0 0-.123-2.329l-3.046-2.739zM141.51 113.633a1.65 1.65 0 1 0-3.014 1.344l1.667 3.743a1.652 1.652 0 0 0 2.178.835 1.65 1.65 0 0 0 .837-2.178l-1.668-3.744zM149.998 117.926c.912 0 1.649-.737 1.649-1.649v-4.095a1.648 1.648 0 1 0-3.298 0v4.095a1.65 1.65 0 0 0 1.649 1.649zM148.29 133.033s-.712.39-1.04.685a4.099 4.099 0 0 0-.29 5.787 4.092 4.092 0 0 0 5.783.288c.328-.292.789-.964.789-.964l8.651-13.027-.059-.062-13.834 7.293z"/><path d="M162.676 100.817c3.937-6.534 7.227-14.622 7.227-23.412 0-25.373-16.061-41.134-41.913-41.134-12.92 0-24.834 8.251-32.322 14.882-7.484-6.631-19.396-14.882-32.319-14.882-25.853 0-41.91 15.761-41.91 41.134 0 20.353 17.53 36.748 19.199 38.26l48.137 46.448c1.832 1.823 4.28 2.827 6.893 2.827 2.611 0 5.058-1.004 6.84-2.772l11.995-11.554c5.557 14.184 19.367 24.259 35.496 24.259 21.018 0 38.118-17.099 38.118-38.116-.001-16.573-10.638-30.703-25.441-35.94zm-50.793 35.941c0 .857.039 1.705.095 2.548L95.67 155.015l-48.219-46.527a5.068 5.068 0 0 0-.17-.156c-.158-.142-15.945-14.621-15.945-30.925 0-19.852 11.668-31.236 32.013-31.236 11.628 0 23.062 9.572 28.842 15.278a4.949 4.949 0 0 0 6.953.001c5.784-5.708 17.22-15.28 28.846-15.28 20.347 0 32.016 11.385 32.016 31.236 0 7.997-3.807 15.582-7.763 21.307l.01.001a38.223 38.223 0 0 0-2.254-.072c-21.018-.001-38.116 17.098-38.116 38.116zm44.263 26.624h-12.292a2.045 2.045 0 0 1-2.046-2.048c0-1.131.915-2.047 2.046-2.047h12.292c1.131 0 2.046.916 2.046 2.047a2.046 2.046 0 0 1-2.046 2.048zm16.063-4.285c-6.026-4.997-13.766-8.003-22.211-8.003s-16.184 3.006-22.209 8.004c-5.745-5.713-9.308-13.617-9.308-22.34 0-17.379 14.138-31.518 31.517-31.518s31.52 14.139 31.52 31.518c0 8.722-3.564 16.627-9.309 22.339z"/></g></g></switch></svg>