<svg width="212" height="212" viewBox="0 0 212 212" xmlns="http://www.w3.org/2000/svg"><title>bulb</title><g fill="#605F5E" fill-rule="evenodd"><path d="M123.701 172h-35.5a5.591 5.591 0 0 1-5.601-5.601c0-3.1 2.5-5.6 5.601-5.6h35.5c3.1 0 5.6 2.5 5.6 5.6 0 3.101-2.5 5.601-5.6 5.601M123.701 157.201h-35.5a5.592 5.592 0 0 1-5.601-5.603c0-3.101 2.5-5.601 5.601-5.601h35.5c3.1 0 5.6 2.5 5.6 5.601 0 3.103-2.5 5.603-5.6 5.603M119.701 175.6c0 7.602-6.201 13.801-13.801 13.801-7.6 0-13.8-6.199-13.8-13.801h27.601M125 142.201H86.9c-3.1 0-5.6-2.5-5.6-5.603 0-9.397-4.4-15.601-9.9-23.299-7.101-9.9-15-21.1-15-41.2 0-27.3 22.2-49.5 49.5-49.5h.2c27.3 0 49.499 22.2 49.499 49.5 0 20-8 31.3-15 41.201-5.5 7.799-9.898 13.898-9.898 23.299-.101 3.102-2.601 5.602-5.701 5.602zM92.101 131h27.601c1.398-10 6.6-17.199 11.6-24.199 6.4-8.9 13-18.2 13-34.6 0-21.101-17.199-38.301-38.199-38.301h-.2c-21.1 0-38.3 17.2-38.3 38.301 0 16.5 6.601 25.699 13 34.6C85.5 113.801 90.701 121 92.101 131z"/></g></svg>