<svg width="212" height="212" viewBox="0 0 212 212" xmlns="http://www.w3.org/2000/svg"><title>camera</title><g fill="#605F5E" fill-rule="evenodd"><path d="M157 29.5H80.3v-2.4c0-3.3-3.6-5.1-6.9-5.1h-12c-3.3 0-5.6 1.8-5.6 5.1v3c-16.9 0-30 13.4-30 29.9v101.5c0 16.398 13.2 29.301 29.6 29.301h101.499C173.298 190.8 187 178 187 161.5V60c.1-16.4-13.602-30.5-30-30.5zm18.898 131.4a18.566 18.566 0 0 1-18.601 18.602H55.7c-10.3 0-18.6-8.301-18.6-18.602V59.4c0-10.3 8.3-18.6 18.6-18.6h101.5c10.299 0 18.6 8.3 18.6 18.6v101.5h.098z"/><path d="M106.2 62.2c-30.1 0-54.5 24.501-54.5 54.5 0 30.1 24.5 54.5 54.5 54.5 30.098 0 54.5-24.5 54.5-54.5.001-29.999-24.402-54.5-54.5-54.5zm0 101.501c-25.9 0-47-21.1-47-47s21.1-47 47-47c25.899 0 47 21.101 47 47 .001 25.901-21.1 47-47 47z"/><path d="M106.2 79c-20.801 0-37.7 16.899-37.7 37.701 0 20.799 16.899 37.697 37.7 37.697 20.799 0 37.698-16.898 37.698-37.697C143.898 95.9 127 79 106.2 79zm0 71.701c-18.7 0-34-15.199-34-34 0-18.801 15.199-34 34-34 18.799 0 34 15.199 34 34 .001 18.799-15.301 34-34 34z"/><path d="M110.701 91.3c-1-.199-2 .5-2.201 1.5-.199 1 .5 2 1.5 2.2 10.602 1.8 18.201 11 18.201 21.701 0 1 .799 1.899 1.898 1.899 1 0 1.899-.802 1.899-1.899C132 104.201 123 93.5 110.701 91.3M157 51c-5 0-9 4-9 9 0 4.899 4 9 9 9s9-4 9-9c-.102-5-4.102-9-9-9"/></g></svg>