<svg width="212" height="212" viewBox="0 0 212 212" xmlns="http://www.w3.org/2000/svg"><title>clock</title><g fill="#605F5E" fill-rule="evenodd"><path d="M106.3 192.499C58.699 192.499 20 153.8 20 106.3s38.699-86.2 86.3-86.2 86.3 38.7 86.3 86.2-38.7 86.199-86.3 86.199zm0-161.198c-41.4 0-75 33.6-75 75s33.7 75 75 75c41.399 0 75-33.6 75-75 0-41.401-33.601-75-75-75z"/><path d="M112.5 45.6c0 3.399-2.801 6.2-6.2 6.2-3.4 0-6.2-2.801-6.2-6.2s2.8-6.2 6.2-6.2c3.5 0 6.2 2.8 6.2 6.2M112.5 166.9c0 3.399-2.801 6.201-6.2 6.201-3.4 0-6.2-2.802-6.2-6.201 0-3.399 2.8-6.198 6.2-6.198 3.5-.002 6.2 2.797 6.2 6.198M167 112.499c-3.4 0-6.2-2.799-6.2-6.199s2.8-6.2 6.2-6.2c3.398 0 6.199 2.8 6.199 6.2 0 3.4-2.799 6.199-6.199 6.199M45.6 112.499c-3.399 0-6.2-2.799-6.2-6.199s2.801-6.2 6.2-6.2c3.4 0 6.2 2.8 6.2 6.2.1 3.4-2.7 6.199-6.2 6.199M142 56.801c-1.7 3-5.5 4-8.5 2.3-3-1.7-4-5.5-2.301-8.5 1.699-3 5.5-4 8.5-2.3 3 1.699 4.101 5.599 2.301 8.5M81.4 161.9c-1.699 3-5.5 4-8.5 2.302-3-1.701-4-5.5-2.3-8.5 1.7-3 5.5-4 8.5-2.302 3 1.702 4 5.5 2.3 8.5M155.699 141.999c-3-1.699-4-5.5-2.301-8.5 1.699-3 5.5-4 8.5-2.299 3 1.698 4 5.5 2.301 8.5-1.699 3-5.5 4-8.5 2.299M50.699 81.301c-3-1.7-4-5.5-2.301-8.5 1.7-3 5.5-4 8.5-2.301 3 1.7 4 5.5 2.301 8.5-1.799 3-5.599 4-8.5 2.301M162 81.301C159 83 155.199 82 153.5 79c-1.7-3-.7-6.8 2.3-8.5 3-1.699 6.8-.699 8.5 2.301 1.7 3 .7 6.799-2.3 8.5M56.9 141.999c-3 1.701-6.8.701-8.5-2.299-1.699-3-.699-6.802 2.301-8.5 3-1.701 6.801-.701 8.5 2.299 1.699 3 .699 6.801-2.301 8.5M131.3 161.9c-1.7-3-.7-6.799 2.3-8.5 3-1.698 6.801-.698 8.5 2.302 1.7 3 .7 6.799-2.3 8.5-3 1.698-6.8.698-8.5-2.302M70.6 56.801c-1.7-3-.7-6.801 2.3-8.5 3-1.7 6.801-.7 8.5 2.3 1.7 3 .7 6.8-2.3 8.5-3 1.7-6.8.7-8.5-2.3M126.3 130.602c-1 0-1.9-.399-2.7-1.103l-21.4-21.398v-42.3A3.798 3.798 0 0 1 106 62c2.1 0 3.699 1.7 3.699 3.801V105l19.199 19.201c1.5 1.5 1.5 3.799 0 5.299-.699.7-1.699 1.102-2.598 1.102"/></g></svg>