<svg xmlns="http://www.w3.org/2000/svg" width="212" height="212" viewBox="0 0 212 212"><g fill="#605F5E"><path d="M44.064 67.664h30.959a1.933 1.933 0 0 0 1.931-1.933 1.93 1.93 0 0 0-1.931-1.931H44.064a1.93 1.93 0 0 0-1.932 1.931c0 1.066.865 1.933 1.932 1.933zM75.024 91.411h-30.96a1.932 1.932 0 1 0 0 3.866h30.959a1.932 1.932 0 0 0 .001-3.866zM35.671 81.47H66.63a1.933 1.933 0 0 0 0-3.864H35.671a1.932 1.932 0 1 0 0 3.864zM161.662 105.654c-20.609 0-37.375 16.766-37.375 37.374 0 20.609 16.766 37.377 37.375 37.377 20.607 0 37.374-16.768 37.374-37.377 0-20.608-16.766-37.374-37.374-37.374zm0 68.951c-17.413 0-31.578-14.164-31.578-31.578 0-17.412 14.165-31.578 31.578-31.578 17.412 0 31.579 14.166 31.579 31.578 0 17.414-14.167 31.578-31.579 31.578zM50.34 105.654c-20.609 0-37.375 16.766-37.375 37.374 0 20.609 16.766 37.377 37.375 37.377 20.608 0 37.375-16.768 37.375-37.377 0-20.608-16.766-37.374-37.375-37.374zm0 68.951c-17.413 0-31.579-14.164-31.579-31.578 0-17.412 14.167-31.578 31.579-31.578 17.413 0 31.579 14.166 31.579 31.578 0 17.414-14.166 31.578-31.579 31.578z"/></g><g fill="#605F5E"><path d="M134.208 56.51c7.151 2.174 14.712-1.871 16.876-9.016 2.173-7.157-1.866-14.717-9.02-16.884-7.148-2.174-14.709 1.875-16.883 9.028-2.165 7.145 1.872 14.701 9.027 16.872zM163.38 88.312l-20.804-2.84-10.812-20.351a12.35 12.35 0 0 0-4.215-5.202c-5.604-3.961-13.354-2.627-17.312 2.976l-19.896 28.16c-3.379 4.785-2.892 11.124.806 15.342l13.947 18.937-11.998 30.574a7.356 7.356 0 0 0 4.161 9.533c.882.347 1.79.512 2.685.512a7.358 7.358 0 0 0 6.85-4.672l13.481-34.354a7.364 7.364 0 0 0-.926-7.051l-9.74-13.225a13.03 13.03 0 0 0 1.024-1.261l17.142-24.265 6.388 12.018a5.514 5.514 0 0 0 4.125 2.876l23.604 3.222a5.517 5.517 0 0 0 1.49-10.929z"/></g></svg>