<svg width="212" height="212" viewBox="0 0 212 212" xmlns="http://www.w3.org/2000/svg"><title>dishwasher</title><g fill="#605F5E" fill-rule="evenodd"><path d="M152.85 7h-93.4c-18.399 0-33.7 14.4-33.7 32.8v131.901c0 18.398 15.301 34.1 33.7 34.1h93.399c18.399 0 34.2-15.6 34.2-34.1V39.8C187.05 21.4 171.25 7 152.85 7zm-93.4 11.2h93.399c10.301 0 18.899 5.6 21.301 16.9h-136c2.4-11.3 11.1-16.9 21.3-16.9zm116.4 153.501c0 12.199-10.8 22.801-23 22.801h-93.4c-12.2 0-22.399-10.602-22.399-22.801V39.8c0-.6.399-.9.5-.9H174.85s1 .4 1 .9v131.901z"/><path d="M121.55 52h-30.8c-2.1 0-3.8 1.7-3.8 3.8 0 2.1 1.7 3.8 3.8 3.8h30.8c2.101 0 3.8-1.7 3.8-3.8 0-2.1-1.7-3.8-3.8-3.8"/></g></svg>