<svg width="212" height="212" viewBox="0 0 212 212" xmlns="http://www.w3.org/2000/svg"><title>door.svg</title><g fill="#605F5E" fill-rule="evenodd"><path d="M154.549 205.7H58.15c-6.1 0-11-4.9-11-11V18c0-6.1 4.9-11 11-11h96.399c6.1 0 11 4.9 11 11v176.799c0 6-4.901 10.901-11 10.901zM58.45 194.499h95.899V18.2H58.45v176.299z"/><path d="M67.75 27.6h77.1v61.1h-77.1V27.6zm7.5 53.6h62.1V35.1h-62.1v46.1zM142.25 111.499h-18.8c-1 0-1.9-.799-1.9-1.897a1.9 1.9 0 0 1 1.9-1.899h18.801c1 0 1.897.799 1.897 1.899 0 .998-.898 1.897-1.898 1.897"/></g></svg>