<svg width="212" height="212" viewBox="0 0 212 212" xmlns="http://www.w3.org/2000/svg"><title>dryer</title><g fill="#605F5E" fill-rule="evenodd"><path d="M90.25 136.4c0-4.101 2-6.101 4.301-8.398 2.5-2.5 5.399-5.398 5.399-11s-2.899-8.5-5.399-11c-.701-.701-1.9-.701-2.701 0-.699.699-.699 1.899 0 2.701 2.301 2.301 4.301 4.301 4.301 8.398 0 4.099-2 6.102-4.301 8.399-2.5 2.5-5.399 5.397-5.399 11 0 5.601 2.899 8.5 5.399 11 .4.397.801.5 1.301.5.5 0 1-.201 1.3-.5.7-.701.7-1.899 0-2.701-2.201-2.298-4.201-4.298-4.201-8.399M103.15 136.4c0-4.101 2-6.101 4.301-8.398 2.5-2.5 5.398-5.398 5.398-11s-2.898-8.5-5.398-11c-.701-.701-1.9-.701-2.701 0-.699.699-.699 1.899 0 2.701 2.3 2.301 4.3 4.301 4.3 8.398 0 4.099-2 6.102-4.3 8.399-2.5 2.5-5.4 5.397-5.4 11 0 5.601 2.9 8.5 5.4 11 .4.397.801.5 1.301.5.5 0 1-.201 1.299-.5.7-.701.7-1.899 0-2.701-2.2-2.298-4.2-4.298-4.2-8.399M125.85 117.001c0-5.603-2.898-8.5-5.398-11-.701-.701-1.9-.701-2.701 0-.699.699-.699 1.899 0 2.7 2.301 2.301 4.301 4.301 4.301 8.4s-2 6.1-4.301 8.399c-2.5 2.5-5.399 5.397-5.399 11 0 5.601 2.899 8.5 5.399 11 .4.397.801.5 1.301.5.5 0 1-.201 1.301-.5.699-.701.699-1.899 0-2.701-2.301-2.299-4.301-4.299-4.301-8.399 0-4.1 2-6.101 4.301-8.398 2.598-2.501 5.497-5.301 5.497-11.001"/><path d="M152.85 7h-93.4c-18.399 0-33.7 14.4-33.7 32.8v131.901c0 18.398 15.301 34.1 33.7 34.1h93.399c18.399 0 34.2-15.6 34.2-34.1V39.8C187.05 21.4 171.25 7 152.85 7zm-93.4 11.2h93.399c12.2 0 23 9.3 23 21.6V52H37.05V39.8c0-12.2 10.3-21.6 22.4-21.6zm93.4 176.301h-93.4c-12.2 0-22.399-10.603-22.399-22.801v-116H175.85v115.901c0 12.299-10.8 22.9-23 22.9z"/><path d="M105.05 42.6c3.6 0 6.6-2.9 6.6-6.6 0-3.6-2.9-6.6-6.6-6.6-3.601 0-6.601 2.9-6.601 6.6.001 3.7 2.9 6.6 6.601 6.6zm0-9.3c1.6 0 2.799 1.3 2.799 2.8 0 1.6-1.299 2.8-2.799 2.8a2.795 2.795 0 0 1-2.801-2.8c-.099-1.6 1.201-2.8 2.801-2.8zM82.45 42.6c3.601 0 6.601-2.9 6.601-6.6 0-3.6-2.9-6.6-6.601-6.6-3.6 0-6.6 2.9-6.6 6.6 0 3.7 3 6.6 6.6 6.6zm0-9.3c1.601 0 2.8 1.3 2.8 2.8 0 1.6-1.3 2.8-2.8 2.8-1.6 0-2.8-1.3-2.8-2.8 0-1.6 1.3-2.8 2.8-2.8zM59.15 42.6c3.6 0 6.6-2.9 6.6-6.6 0-3.6-2.899-6.6-6.6-6.6-3.6 0-6.6 2.9-6.6 6.6 0 3.7 3 6.6 6.6 6.6zm0-9.3c1.6 0 2.8 1.3 2.8 2.8 0 1.6-1.3 2.8-2.8 2.8-1.6 0-2.8-1.3-2.8-2.8 0-1.6 1.2-2.8 2.8-2.8zM106.15 74.501c-28.8 0-52.2 23.399-52.2 52.2 0 28.801 23.4 52.199 52.2 52.199 28.801 0 52.301-23.299 52.301-52.199 0-28.901-23.5-52.2-52.301-52.2zm0 97c-24.7 0-44.7-20.103-44.7-44.801 0-24.7 20.101-44.7 44.7-44.7 24.7 0 44.7 20.1 44.7 44.701.101 24.699-20 44.8-44.7 44.8zM152.85 42.6c3.602 0 6.602-2.9 6.602-6.6 0-3.6-2.9-6.6-6.602-6.6-3.699 0-6.601 2.9-6.601 6.6.101 3.7 3.001 6.6 6.601 6.6zm0-9.3c1.602 0 2.801 1.3 2.801 2.8 0 1.6-1.301 2.8-2.801 2.8-1.601 0-2.8-1.3-2.8-2.8 0-1.6 1.3-2.8 2.8-2.8z"/></g></svg>