<svg width="212" height="212" viewBox="0 0 212 212" xmlns="http://www.w3.org/2000/svg"><title>fridge</title><g fill="#605F5E" fill-rule="evenodd"><path d="M184.95 35.3c0-17.3-14-31.3-31.3-31.3H58.751C41.45 4 27.45 18 27.45 35.3v141.8c0 17.299 14 31.299 31.301 31.299h94.899c17.3 0 31.3-14 31.3-31.299V35.3zM59.15 15.199h95.399c11.102 0 21 9.301 21 20.4v71.5H38.65V35.6c0-11 9.401-20.401 20.5-20.401zm95.401 183.802h-95.4c-11.101 0-20.5-9.603-20.5-20.701v-67.5H175.55v67.5c.001 11.098-9.9 20.701-20.999 20.701z"/><path d="M56.95 95.9h36c2.101 0 3.801-1.7 3.801-3.8 0-2.101-1.7-3.801-3.801-3.801h-36c-2.1 0-3.8 1.7-3.8 3.801 0 2.1 1.8 3.8 3.8 3.8M93.051 127.7h-36a3.797 3.797 0 0 0-3.8 3.801 3.796 3.796 0 0 0 3.8 3.799h36a3.797 3.797 0 0 0 3.801-3.799c-.002-2.103-1.801-3.801-3.801-3.801"/></g></svg>