<svg width="212" height="212" viewBox="0 0 212 212" xmlns="http://www.w3.org/2000/svg"><title>hcc-message</title><g fill="#605F5E" fill-rule="evenodd"><path d="M25.759 194.6a5.62 5.62 0 0 1-5.374-7.279l12.521-40.594c-8.487-11.338-13.129-25.244-13.129-39.498 0-20.405 9.375-39.309 26.398-53.23C62.418 40.715 83.664 33.4 106 33.4c21.939 0 43.706 7.475 59.716 20.509 17.093 13.917 26.507 32.853 26.507 53.32 0 18.861-8.754 37.535-24.019 51.232-16.015 14.371-37.89 22.285-61.593 22.286h-.01c-8.814-.001-17.9-1.083-27.034-3.218l-52.085 16.799a5.553 5.553 0 0 1-1.723.272zM106 44.646c-41.342 0-74.977 28.075-74.977 62.583 0 12.677 4.426 25.024 12.461 34.761a5.623 5.623 0 0 1 1.036 5.236l-10.203 33.08 43.304-13.967a5.655 5.655 0 0 1 3.074-.105c8.779 2.166 17.496 3.266 25.909 3.267h.01c20.928 0 40.134-6.894 54.08-19.41 12.892-11.567 20.283-27.19 20.283-42.862 0-17.02-7.939-32.858-22.359-44.599-14.041-11.428-33.22-17.984-52.618-17.984z"/><path d="M98.486 135.499H87.258c-2.637-.002-4.758-2.222-4.758-4.946v-22.209h-4.575c-1.061 0-2.009-.634-2.44-1.636a2.845 2.845 0 0 1 .454-2.977l28.077-32.524a2.604 2.604 0 0 1 3.976 0l6.999 8.116v-3.848h8.325v13.49l12.746 14.766c.707.813.883 1.979.455 2.977-.428 1.002-1.384 1.636-2.436 1.636h-4.568v22.209h-.009c0 2.729-2.118 4.946-4.756 4.946H98.486z"/></g></svg>