<svg width="212" height="212" viewBox="0 0 212 212" xmlns="http://www.w3.org/2000/svg"><title>hob</title><g fill="#605F5E" fill-rule="evenodd"><path d="M141.8 110.2c-17.5 0-31.7 14.2-31.7 31.7s14.2 31.699 31.7 31.699 31.7-14.199 31.7-31.699-14.2-31.7-31.7-31.7zm0 55.8c-13.3 0-24.2-10.8-24.2-24.2 0-13.3 10.8-24.2 24.2-24.2 13.3 0 24.2 10.8 24.2 24.2 0 13.4-10.9 24.2-24.2 24.2z"/><path d="M141.8 127.9c-7.7 0-14 6.199-14 13.897 0 7.7 6.3 13.9 13.8 13.9V152c-5.6 0-10.1-4.6-10.1-10.2s4.6-10.2 10.2-10.2 10.2 4.603 10.2 10.2c0 2.7-1 5.3-3 7.2-1.9 1.9-4.5 3-7.2 3V155.797c3.7 0 7.2-1.397 9.8-4.1 2.6-2.603 4.1-6.103 4.1-9.802.1-7.695-6.1-13.995-13.8-13.995M69.1 110.2c-8.5 0-16.4 3.3-22.4 9.3-6 6-9.3 13.9-9.3 22.4 0 17.5 14.2 31.699 31.7 31.699s31.7-14.199 31.7-31.699-14.2-31.7-31.7-31.7zm0 55.8c-13.3 0-24.2-10.8-24.2-24.2 0-6.5 2.5-12.5 7.1-17.1 4.6-4.601 10.6-7.101 17.1-7.101 13.3 0 24.2 10.801 24.2 24.199C93.3 155.2 82.4 166 69.1 166zM69.1 102.2c8.5 0 16.4-3.7 22.4-9.601 6-6 9.3-14.1 9.3-22.6 0-17.5-14.2-31.8-31.7-31.8s-31.7 14.5-31.7 32S51.6 102.2 69.1 102.2zm0-56.5c13.3 0 24.2 10.8 24.2 24.2 0 6.5-2.5 12.5-7.1 17.1-4.601 4.6-10.9 7.1-17.4 7.1l-.3 3.801V94c-13.1 0-23.9-10.8-23.9-24.2 0-13.3 11.1-24.1 24.5-24.1zM141.8 89.7c11 0 19.9-8.9 19.9-19.9 0-11-8.9-19.9-19.9-19.9-5.3 0-10.3 2.1-14.1 5.8-3.8 3.8-5.8 8.7-5.8 14 0 11.1 8.9 20 19.9 20zM133 61.1c2.3-2.3 5.4-3.6 8.8-3.6 6.8 0 12.4 5.5 12.4 12.4 0 6.8-5.5 12.399-12.4 12.399-6.8.001-12.4-5.599-12.4-12.399 0-3.4 1.3-6.5 3.6-8.8z"/><path d="M166.6 16H44.3C28.4 16 16 28.7 16 44.6v122.3c0 15.9 12.4 29.1 28.3 29.1h122.3c15.9 0 29.4-13.2 29.4-29.1V44.6c0-15.9-13.5-28.6-29.4-28.6zm18.2 150.9c0 9.699-8.5 17.897-18.2 17.897H44.3c-9.7 0-17-8.198-17-17.897V44.6c0-9.7 7.3-17.3 17-17.3h122.3c9.7 0 18.2 7.6 18.2 17.3v122.3z"/></g></svg>