<svg width="212" height="212" viewBox="0 0 212 212" xmlns="http://www.w3.org/2000/svg"><title>hob copy</title><g fill="#605F5E" fill-rule="evenodd"><path d="M191.7 112.2L136 76.8V28.5c0-6.9-5.8-12.4-12.8-12.4h-35c-6.9 0-12.2 5.4-12.2 12.4v48.3l-55.5 35.5c-3.9 2.6-4.5 7.6-4.5 11.601V139c0 6.9 5.4 12 12.3 12h154.9c6.899 0 12.8-5.1 12.8-12v-15.2c0-5.8-1.4-9.5-4.3-11.6zM87.2 82.8V28.4c0-.699.2-1.1.899-1.1h35c.698 0 1.5.4 1.5 1.1v54.4l54.301 34.4H32.3l54.9-34.4zm97.6 56.2c0 .7-.899.8-1.6.8H28.3c-.7 0-1 0-1-.8v-15.2c0-1.1-.2-2.7-.2-2.7h157.2c.101 1.9.4 1.7.4 2.7l.1 15.2z"/><path d="M170.3 125.2c-3.2 0-5.8 2.6-5.8 5.899 0 3.198 2.6 5.801 5.8 5.801 3.2 0 5.8-2.603 5.8-5.801.1-3.299-2.5-5.899-5.8-5.899zm0 8c-1.2 0-2.1-.9-2.1-2.101 0-1.199.899-2.102 2.1-2.102s2.101.898 2.101 2.102c-.001 1.101-.901 2.101-2.101 2.101zM123.2 161.5c-.7-.8-1.9-.8-2.601-.1a1.785 1.785 0 0 0-.101 2.6c.2.2 5 5.7-.101 12.9-5.5 7.699-2.399 15.397.101 18.3.399.5.899.7 1.399.7.399 0 .8-.103 1.199-.4.801-.7.9-1.8.301-2.6-.101-.103-5.199-6.5.102-13.801C129 171.4 125.7 164.2 123.2 161.5M103.1 161.5c-.699-.8-1.899-.8-2.6-.1-.8.699-.8 1.897-.1 2.6.199.2 5 5.7-.101 12.9-5.5 7.699-2.399 15.397.101 18.3.399.5.899.7 1.399.7.4 0 .8-.103 1.2-.4.8-.6.9-1.8.3-2.6-.2-.301-5.1-6.5.101-13.801 5.4-7.699 2.1-14.899-.3-17.599M82.9 161.5c-.7-.8-1.9-.8-2.601-.1-.8.699-.8 1.897-.1 2.6.2.2 5.1 5.7-.101 12.9-5.498 7.7-2.398 15.4.102 18.3.399.5.899.7 1.399.7.4 0 .801-.103 1.2-.4.8-.6.9-1.8.3-2.6-.199-.3-5.099-6.5.101-13.8 5.4-7.7 2.2-14.9-.3-17.6"/></g></svg>