<svg width="212" height="212" viewBox="0 0 212 212" xmlns="http://www.w3.org/2000/svg"><title>hue</title><g fill="#605F5E" fill-rule="evenodd"><path d="M128.627 171.699h-35.5c-3.1 0-5.6-2.5-5.6-5.6 0-3.101 2.5-5.601 5.6-5.601h35.5c3.1 0 5.6 2.5 5.6 5.601 0 3.1-2.5 5.6-5.6 5.6M128.627 156.9h-35.5c-3.1 0-5.6-2.5-5.6-5.603 0-3.103 2.5-5.603 5.6-5.603h35.5c3.1 0 5.6 2.5 5.6 5.603 0 3.103-2.5 5.603-5.6 5.603M124.627 175.301c0 7.6-6.199 13.799-13.8 13.799-7.6 0-13.8-6.199-13.8-13.799h27.6M132.027 142.6h-42.6c-3 0-5.5-2.399-5.6-5.5 0-.1-.5-14.8-2.7-28.3-2.3-13.6-8.7-39.6-9.3-42.1l-.5-1.5-5.9-16.1c-2.1-5.3-2.9-16.7 9-23.2 10.7-5.8 27.3-6.8 34.5-7h5.199c7 .2 23.101 1.2 33.802 7 11.1 6 11.1 17.1 8.398 23.3l-6.4 17.8c-.602 2.3-7 28.2-9.301 41.8-2.301 13.5-2.801 28.2-2.801 28.3-.299 3-2.697 5.5-5.797 5.5zm-37.3-11.299h31.9c.301-5.801 1.1-15.201 2.7-24.4 2.5-14.601 9.3-41.7 9.5-42.798 0-.1.101-.2.101-.3l.602-1.9c0-.1.1-.2.1-.2l6-16.5c.1-.1.1-.3.199-.4.701-1.7 1.898-6-3.398-8.9-9.102-4.9-24.701-5.6-29.201-5.7h-3.397c-4.706.097-20.906.797-29.906 5.697-6.1 3.3-4.1 8.5-3.9 9.1 0 .1.1.1.1.2l6.3 18.1c0 .1.1.3.1.4.3 1.2 7.1 28.5 9.5 43.2 1.6 9.2 2.4 18.6 2.7 24.401z"/></g></svg>