<svg version="1.1" id="Layer_1" xmlns="http://www.w3.org/2000/svg" xmlns:xlink="http://www.w3.org/1999/xlink" x="0px" y="0px"
	 width="1133px" height="567px" viewBox="0 0 283.46 141.73" enable-background="new 0 0 283.46 141.73" xml:space="preserve">
<g id="Keller_x5F_Wasser">
	<g>
		<path fill="#FFFFFF" stroke="#737B7A" stroke-width="0.3" stroke-miterlimit="10" d="M112.623,98.542v20.787
			c0,0.328,0.262,0.591,0.59,0.591l0,0c0.328,0,0.59-0.263,0.59-0.591V98.542"/>
		<path fill="#FFFFFF" stroke="#737B7A" stroke-width="0.3" stroke-miterlimit="10" d="M114.539,98.542v20.787
			c0,0.328,0.263,0.591,0.591,0.591l0,0c0.328,0,0.59-0.263,0.59-0.591V98.542"/>
		<path fill="#FFFFFF" stroke="#737B7A" stroke-width="0.3" stroke-miterlimit="10" d="M117.741,119.788
			c0,0.552-0.275,0.998-0.63,0.998h-3.871c-0.341,0-0.63-0.446-0.63-0.998l0,0c0-0.551,0.275-0.997,0.63-0.997h3.871
			C117.452,118.791,117.741,119.237,117.741,119.788L117.741,119.788z"/>
		<path fill="#FFFFFF" stroke="#737B7A" stroke-width="0.3" stroke-miterlimit="10" d="M116.796,129.959V106.77
			c0-0.289,3.937-1.68,8.556-1.68c4.62,0,8.163,1.391,8.163,1.68v23.188"/>

			<rect x="129.499" y="113.397" fill="#D3D6D5" stroke="#737B7A" stroke-width="0.5018" stroke-miterlimit="10" width="1.667" height="4.646"/>
		<path fill="#FFFFFF" stroke="#737B7A" stroke-width="0.5018" stroke-miterlimit="10" d="M130.982,114.145
			c0,0.131-0.105,0.236-0.236,0.236h-0.814c-0.131,0-0.236-0.105-0.236-0.236l0,0c0-0.132,0.105-0.236,0.236-0.236h0.814
			C130.877,113.909,130.982,114.013,130.982,114.145L130.982,114.145z"/>
		<path fill="#FFFFFF" stroke="#737B7A" stroke-width="0.5018" stroke-miterlimit="10" d="M130.982,114.788
			c0,0.132-0.105,0.236-0.236,0.236h-0.814c-0.131,0-0.236-0.104-0.236-0.236l0,0c0-0.131,0.105-0.236,0.236-0.236h0.814
			C130.877,114.552,130.982,114.657,130.982,114.788L130.982,114.788z"/>
		<path fill="#FFFFFF" stroke="#737B7A" stroke-width="0.5018" stroke-miterlimit="10" d="M130.982,115.431
			c0,0.131-0.105,0.236-0.236,0.236h-0.814c-0.131,0-0.236-0.105-0.236-0.236l0,0c0-0.132,0.105-0.236,0.236-0.236h0.814
			C130.877,115.195,130.982,115.3,130.982,115.431L130.982,115.431z"/>
		<path fill="#FFFFFF" stroke="#737B7A" stroke-width="0.5018" stroke-miterlimit="10" d="M130.982,116.074
			c0,0.132-0.105,0.236-0.236,0.236h-0.814c-0.131,0-0.236-0.104-0.236-0.236l0,0c0-0.131,0.105-0.236,0.236-0.236h0.814
			C130.877,115.838,130.982,115.943,130.982,116.074L130.982,116.074z"/>
		<path fill="#FFFFFF" stroke="#737B7A" stroke-width="0.5018" stroke-miterlimit="10" d="M130.982,116.718
			c0,0.131-0.105,0.236-0.236,0.236h-0.814c-0.131,0-0.236-0.105-0.236-0.236l0,0c0-0.132,0.105-0.236,0.236-0.236h0.814
			C130.877,116.481,130.982,116.586,130.982,116.718L130.982,116.718z"/>
		<path fill="#FFFFFF" stroke="#737B7A" stroke-width="0.5018" stroke-miterlimit="10" d="M130.982,117.36
			c0,0.132-0.105,0.236-0.236,0.236h-0.814c-0.131,0-0.236-0.104-0.236-0.236l0,0c0-0.131,0.105-0.236,0.236-0.236h0.814
			C130.877,117.124,130.982,117.229,130.982,117.36L130.982,117.36z"/>
	</g>
</g>



</svg>
