<svg version="1.1" id="Layer_1" xmlns="http://www.w3.org/2000/svg" xmlns:xlink="http://www.w3.org/1999/xlink" x="0px" y="0px"
	 width="1133px" height="567px" viewBox="0 0 283.46 141.73" enable-background="new 0 0 283.46 141.73" xml:space="preserve">


<g id="Kueche_x5F_Kuehlschrank">
	<g>

			<rect x="128.909" y="82.689" fill="none" stroke="#737B7A" stroke-width="2" stroke-miterlimit="10" width="10.065" height="0.341"/>
		<g>

				<rect x="128.686" y="76.154" fill="#FFFFFF" stroke="#737B7A" stroke-width="0.3" stroke-miterlimit="10" width="10.577" height="6.495"/>

				<rect x="128.686" y="83.03" fill="#FFFFFF" stroke="#737B7A" stroke-width="0.3" stroke-miterlimit="10" width="10.577" height="14.16"/>
			<path fill="none" stroke="#737B7A" stroke-width="0.7" stroke-miterlimit="10" d="M130.037,89.723
				c0,0.184-0.157,0.341-0.341,0.341l0,0c-0.184,0-0.341-0.157-0.341-0.341v-3.977c0-0.184,0.157-0.342,0.341-0.342l0,0
				c0.184,0,0.341,0.158,0.341,0.342V89.723z"/>
			<path fill="none" stroke="#737B7A" stroke-width="0.7" stroke-miterlimit="10" d="M130.037,80.891c0,0.118-0.157,0.21-0.341,0.21
				l0,0c-0.184,0-0.341-0.092-0.341-0.21v-2.48c0-0.118,0.157-0.21,0.341-0.21l0,0c0.184,0,0.341,0.092,0.341,0.21V80.891z"/>
		</g>
	</g>
</g>


</svg>
