<svg version="1.1" id="Layer_1" xmlns="http://www.w3.org/2000/svg" xmlns:xlink="http://www.w3.org/1999/xlink" x="0px" y="0px"
	 width="1133px" height="567px" viewBox="0 0 283.46 141.73" enable-background="new 0 0 283.46 141.73" xml:space="preserve">


<g id="Kueche_x5F_Herd">
	<g>
		<g>
			<rect x="118.2" y="85.38" fill="#FFFFFF" width="9.357" height="12.099"/>
			<path fill="#737B7A" d="M127.36,85.576v11.706h-8.963V85.576H127.36 M127.754,85.182h-0.394h-8.963h-0.394v0.394v11.706v0.394
				h0.394h8.963h0.394v-0.394V85.576V85.182L127.754,85.182z"/>
		</g>

			<line fill="none" stroke="#737B7A" stroke-width="0.7" stroke-miterlimit="10" x1="118.384" y1="87.111" x2="127.399" y2="87.111"/>
		<circle fill="#D3D6D5" stroke="#737B7A" stroke-width="0.7" stroke-miterlimit="10" cx="126.455" cy="86.363" r="0.42"/>
		<circle fill="#D3D6D5" stroke="#737B7A" stroke-width="0.7" stroke-miterlimit="10" cx="125.3" cy="86.363" r="0.42"/>
		<circle fill="#D3D6D5" stroke="#737B7A" stroke-width="0.7" stroke-miterlimit="10" cx="124.132" cy="86.363" r="0.42"/>
		<circle fill="#D3D6D5" stroke="#737B7A" stroke-width="0.7" stroke-miterlimit="10" cx="122.977" cy="86.363" r="0.42"/>
		<circle fill="#D3D6D5" stroke="#737B7A" stroke-width="0.7" stroke-miterlimit="10" cx="120.313" cy="86.363" r="0.42"/>
		<circle fill="#D3D6D5" stroke="#737B7A" stroke-width="0.7" stroke-miterlimit="10" cx="119.276" cy="86.363" r="0.42"/>
		<g>

				<rect x="119.565" y="88.896" fill="#D3D6D5" stroke="#737B7A" stroke-width="0.7" stroke-miterlimit="10" width="6.627" height="4.606"/>
			<path fill="#FFFFFF" stroke="#737B7A" stroke-width="0.7" stroke-miterlimit="10" d="M125.943,89.395
				c0,0.092-0.079,0.17-0.17,0.17h-5.788c-0.092,0-0.17-0.078-0.17-0.17l0,0c0-0.092,0.079-0.171,0.17-0.171h5.788
				C125.864,89.224,125.943,89.303,125.943,89.395L125.943,89.395z"/>
		</g>

			<line fill="none" stroke="#737B7A" stroke-width="0.7" stroke-miterlimit="10" x1="118.371" y1="95.221" x2="127.518" y2="95.221"/>
	</g>
</g>


</svg>
