<svg xmlns="http://www.w3.org/2000/svg" xmlns:xlink="http://www.w3.org/1999/xlink" version="1.1" x="0px" y="0px" viewBox="0 0 30 30" xml:space="preserve"><g transform="translate(-150 -320)"><g xmlns="http://www.w3.org/2000/svg" xmlns:xlink="http://www.w3.org/1999/xlink"><path d="M173,348h-16v-3c0-1.104,0.895-2,2-2h12c1.104,0,2,0.896,2,2V348z"></path><g><path d="M165,331c-3.314,0-6,2.686-6,6v5h12v-5C171,333.686,168.313,331,165,331z M170,341h-10v-4c0-2.757,2.243-5,5-5     c2.757,0,5,2.243,5,5V341z"></path></g><g><polygon points="156.443,339.461 151.041,337.184 155.229,333.762 152.172,329.296 157.538,328.689 157.375,323.273      162.218,325.672 165,321.027 167.782,325.672 172.626,323.273 172.462,328.689 177.829,329.296 174.772,333.762 178.96,337.184      173.558,339.461 173.169,338.539 177.041,336.906 173.429,333.955 176.065,330.103 171.435,329.578 171.576,324.908      167.397,326.978 165,322.973 162.602,326.978 158.425,324.908 158.565,329.578 153.936,330.103 156.572,333.955 152.96,336.906      156.832,338.539    "></polygon></g><g><path d="M162,337c0-1.654,1.346-3,3-3v-1c-2.205,0-4,1.795-4,4v2h1V337z"></path></g></g></g></svg>