<svg xmlns="http://www.w3.org/2000/svg" xmlns:xlink="http://www.w3.org/1999/xlink" version="1.1" x="0px" y="0px" viewBox="0 0 100 100" enable-background="new 0 0 100 100" xml:space="preserve"><g><g><path fill="#000000" d="M80.875,67.455c3.734-4.745,6.007-10.855,6.007-17.509c0-6.6-2.273-12.655-6.007-17.4    c-1.407-1.8-1.082-4.364,0.649-5.727c1.786-1.418,4.33-1.145,5.683,0.655C92.023,33.636,95,41.436,95,49.945    c0,8.564-2.922,16.418-7.793,22.582c-1.353,1.745-3.897,2.073-5.683,0.655C79.793,71.818,79.468,69.255,80.875,67.455z"></path><path fill="#000000" d="M81.741,50c0,5.509-2.002,10.636-5.358,14.564c-1.515,1.691-4.059,1.909-5.737,0.382    c-1.732-1.473-1.894-4.036-0.433-5.727c2.165-2.509,3.41-5.673,3.41-9.218s-1.245-6.764-3.355-9.164    c-1.461-1.745-1.299-4.309,0.433-5.782c1.678-1.473,4.275-1.309,5.737,0.436C79.738,39.364,81.741,44.491,81.741,50z"></path><path fill="#000000" d="M24.05,30.036c0-6.055,4.871-10.909,10.824-10.909s10.824,4.855,10.824,10.909    c0,6-4.871,10.909-10.824,10.909S24.05,36.036,24.05,30.036z M34.874,27.309c-1.515,0-2.706,1.2-2.706,2.727    s1.191,2.727,2.706,2.727s2.706-1.2,2.706-2.727S36.389,27.309,34.874,27.309z"></path><path fill="#000000" d="M34.874,53.6c-5.25,0-9.471,4.255-9.471,9.545s4.221,9.545,9.471,9.545s9.471-4.255,9.471-9.545    S40.123,53.6,34.874,53.6z M17.285,63.145c0-9.764,7.847-17.727,17.589-17.727s17.589,7.964,17.589,17.727    c0,9.818-7.847,17.727-17.589,17.727S17.285,72.964,17.285,63.145z"></path><path fill="#000000" d="M20.37,86.818h29.008c4.005,0,7.252-3.273,7.252-7.309V20.491c0-4.036-3.247-7.309-7.252-7.309H20.37    c-4.005,0-7.252,3.273-7.252,7.309v59.018C13.118,83.545,16.365,86.818,20.37,86.818z M49.378,95H20.37    C11.873,95,5,88.073,5,79.509V20.491C5,11.927,11.873,5,20.37,5h29.008c8.497,0,15.37,6.927,15.37,15.491v59.018    C64.747,88.073,57.874,95,49.378,95z"></path></g></g></svg>