<svg xmlns="http://www.w3.org/2000/svg" xmlns:xlink="http://www.w3.org/1999/xlink" version="1.1" x="0px" y="0px" viewBox="0 0 25 25" enable-background="new 0 0 25 25" xml:space="preserve"><g><path fill="#000000" d="M24.388,0H0.612C0.275,0,0,0.273,0,0.608v4.784h6.127v2.328h0.49V5.393h8.411L12.66,19.607H9.197   c0.113-0.082,0.222-0.171,0.32-0.271c0.499-0.505,0.768-1.192,0.759-1.935c0-0.053,0.018-3.917,0.019-3.957   c0-0.618-0.258-1.067-0.613-1.067H3.064c-0.355,0-0.612,0.449-0.612,1.067v0.526H1.467c-0.204,0-0.364,0.184-0.364,0.418v1.614   c0,0.234,0.16,0.419,0.364,0.419h0.984v0.361c0,0.336,0,0.516,0.008,0.618H2.453c-0.001,0.762,0.269,1.454,0.757,1.949   c0.094,0.095,0.195,0.179,0.302,0.257H0v4.783C0,24.727,0.275,25,0.612,25h23.776C24.725,25,25,24.727,25,24.391V0.608   C25,0.273,24.725,0,24.388,0z M2.451,15.931H1.593V14.46h0.858L2.451,15.931z M3.558,19.007c-0.397-0.403-0.616-0.974-0.615-1.604   V17.3H2.942c0-0.487-0.001-2.657-0.001-3.855c0-0.342,0.101-0.533,0.146-0.577h6.572c0.046,0.044,0.146,0.235,0.146,0.576   c-0.006,1.186-0.019,3.944-0.019,3.961c0.008,0.613-0.212,1.177-0.617,1.587c-0.387,0.392-0.914,0.616-1.448,0.616H5.025   C4.461,19.607,3.941,19.395,3.558,19.007z M24.509,24.391c0,0.065-0.055,0.119-0.121,0.119H0.612c-0.066,0-0.121-0.054-0.121-0.119   v-4.293h4.534H7.72h5.355l2.532-15.195H0.491V0.608c0-0.064,0.055-0.118,0.121-0.118h23.776c0.066,0,0.121,0.054,0.121,0.118   V24.391z M21.872,19.853h-4.037c-0.405,0-0.678,0.168-0.678,0.418v1.614c0,0.251,0.272,0.419,0.678,0.419h4.037   c0.405,0,0.677-0.168,0.677-0.419v-1.614C22.548,20.021,22.277,19.853,21.872,19.853z M22.059,21.79   c-0.04,0.012-0.103,0.023-0.188,0.023h-4.037c-0.086,0-0.148-0.012-0.188-0.023v-1.424c0.039-0.012,0.102-0.023,0.188-0.023h4.037   c0.085,0,0.147,0.012,0.188,0.023V21.79z M6.618,9.804h-0.49v-0.98h0.49V9.804z M6.127,10.539h0.49v0.98h-0.49V10.539z"></path></g></svg>