<svg xmlns="http://www.w3.org/2000/svg" xmlns:xlink="http://www.w3.org/1999/xlink" version="1.1" x="0px" y="0px" viewBox="0 0 23 23" style="enable-background:new 0 0 23 23;" xml:space="preserve"><g><g><path d="M11.5,23C17.852,23,23,17.852,23,11.5S17.852,0,11.5,0C5.148,0,0,5.148,0,11.5S5.148,23,11.5,23z M11.5,1    C17.29,1,22,5.711,22,11.5S17.29,22,11.5,22S1,17.289,1,11.5S5.71,1,11.5,1z"></path><rect x="11" y="3" width="1" height="2"></rect><rect x="7.25" y="4.005" transform="matrix(0.8661 -0.4999 0.4999 0.8661 -1.4641 4.5447)" width="0.999" height="2"></rect><rect x="4.505" y="6.75" transform="matrix(0.5001 -0.8659 0.8659 0.5001 -4.209 8.2074)" width="1" height="2"></rect><rect x="17.495" y="14.249" transform="matrix(0.5003 -0.8659 0.8659 0.5003 -4.2119 23.2014)" width="1" height="2.001"></rect><rect x="3" y="11" width="2" height="1"></rect><rect x="18" y="11" width="2" height="1"></rect><rect x="4.005" y="14.75" transform="matrix(0.8658 -0.5004 0.5004 0.8658 -6.9588 4.5502)" width="1.999" height="1"></rect><rect x="16.995" y="7.249" transform="matrix(0.8661 -0.4999 0.4999 0.8661 -1.4641 10.0341)" width="2" height="1"></rect><rect x="14.249" y="4.505" transform="matrix(0.5004 -0.8658 0.8658 0.5004 3.2861 15.7042)" width="2.001" height="1"></rect><path d="M11.5,16c0.828,0,1.5-0.672,1.5-1.5c0-0.652-0.419-1.201-1-1.408V7h-1v6.092c-0.581,0.207-1,0.756-1,1.408    C10,15.328,10.672,16,11.5,16z"></path><rect x="9" y="18" width="1" height="1"></rect><rect x="11" y="18" width="1" height="1"></rect><rect x="13" y="18" width="1" height="1"></rect></g></g></svg>