<svg xmlns="http://www.w3.org/2000/svg" xmlns:xlink="http://www.w3.org/1999/xlink" version="1.1" x="0px" y="0px" viewBox="0 0 100 100" style="enable-background:new 0 0 100 100;" xml:space="preserve"><g><path d="M79.1,27.7H20.9c-2.6,0-4.7,2.1-4.7,4.7v32.5c0,2.6,2.1,4.7,4.7,4.7h1.3v0.7c0,1.1,0.9,2.1,2.1,2.1h2.6   c1.1,0,2.1-0.9,2.1-2.1v-0.7h42.1v0.7c0,1.1,0.9,2.1,2.1,2.1h2.6c1.1,0,2.1-0.9,2.1-2.1v-0.7h1.3c2.6,0,4.7-2.1,4.7-4.7V32.4   C83.8,29.8,81.7,27.7,79.1,27.7z M26.9,70.2C26.9,70.3,26.9,70.3,26.9,70.2l-2.7,0.1c0,0-0.1,0-0.1-0.1v-0.7h2.8V70.2z M75.8,70.2   C75.8,70.3,75.8,70.3,75.8,70.2l-2.7,0.1c0,0-0.1,0-0.1-0.1v-0.7h2.8V70.2z M81.8,64.9c0,1.5-1.2,2.7-2.7,2.7H20.9   c-1.5,0-2.7-1.2-2.7-2.7V32.4c0-1.5,1.2-2.7,2.7-2.7h58.2c1.5,0,2.7,1.2,2.7,2.7V64.9z"></path><path d="M65.9,32.8h-43c-0.8,0-1.5,0.7-1.5,1.5V63c0,0.8,0.7,1.5,1.5,1.5h43c0.8,0,1.5-0.7,1.5-1.5V34.2   C67.3,33.4,66.7,32.8,65.9,32.8z M23.4,34.8h34.6c-2.9,4-4.4,8.8-4.4,13.7c0,5.1,1.6,9.9,4.6,14H23.4V34.8z M65.3,62.5h-4.5   c-3.3-3.9-5.1-8.8-5.1-14c0-5,1.8-9.9,4.9-13.7h4.7V62.5z"></path><path d="M74.4,55.2c-2.6,0-4.6,2.1-4.6,4.6s2.1,4.6,4.6,4.6s4.6-2.1,4.6-4.6S77,55.2,74.4,55.2z M74.4,62.5c-1.5,0-2.6-1.2-2.6-2.6   s1.2-2.6,2.6-2.6s2.6,1.2,2.6,2.6S75.9,62.5,74.4,62.5z"></path><path d="M74.4,39.9c2,0,3.6-1.6,3.6-3.6c0-2-1.6-3.6-3.6-3.6c-2,0-3.6,1.6-3.6,3.6C70.9,38.3,72.5,39.9,74.4,39.9z M74.4,34.8   c0.9,0,1.6,0.7,1.6,1.6s-0.7,1.6-1.6,1.6c-0.9,0-1.6-0.7-1.6-1.6S73.6,34.8,74.4,34.8z"></path><path d="M78.4,41.3h-7.8c-0.7,0-1.2,0.6-1.2,1.2v10c0,0.7,0.6,1.2,1.2,1.2h7.8c0.7,0,1.2-0.6,1.2-1.2v-10   C79.6,41.9,79,41.3,78.4,41.3z M77.6,43.3v1.5h-6.3v-1.5H77.6z M77.6,46.8v1.5h-6.3v-1.5H77.6z M71.3,51.8v-1.5h6.3v1.5H71.3z"></path><path d="M60.2,46.1c0.1-0.5-0.3-1.1-0.8-1.1c-0.6-0.1-1.1,0.3-1.1,0.8c-0.1,0.9-0.2,1.8-0.2,2.7c0,0.9,0.1,1.8,0.2,2.7   c0.1,0.5,0.5,0.9,1,0.9c0,0,0.1,0,0.1,0c0.5-0.1,0.9-0.6,0.8-1.1c-0.1-0.8-0.2-1.6-0.2-2.4C60.1,47.7,60.1,46.9,60.2,46.1z"></path><path d="M47.4,44.6l-0.5,0.4c-1.2,0.9-2.1,1.5-4.2,1.5c-1.7,0-2.5-0.5-3.4-1.1c-1.1-0.7-2.2-1.4-4.5-1.4c-2.3,0-3.5,0.8-4.5,1.4   l-0.4,0.3c-0.5,0.3-0.6,0.9-0.3,1.4c0.3,0.5,0.9,0.6,1.4,0.3c0.2-0.1,0.3-0.2,0.5-0.3c0.9-0.6,1.7-1.1,3.4-1.1s2.5,0.5,3.4,1.1   c1.1,0.7,2.2,1.4,4.5,1.4c2.8,0,4.2-1,5.4-1.9l0.5-0.3c0.4-0.3,0.6-0.9,0.2-1.4C48.5,44.4,47.9,44.3,47.4,44.6z"></path><path d="M47.4,49.8l-0.5,0.4c-1.2,0.9-2.1,1.5-4.2,1.5c-1.7,0-2.5-0.5-3.4-1.1c-1.1-0.7-2.2-1.4-4.5-1.4c-2.3,0-3.5,0.8-4.5,1.4   l-0.4,0.3c-0.5,0.3-0.6,0.9-0.3,1.4c0.3,0.5,0.9,0.6,1.4,0.3c0.2-0.1,0.3-0.2,0.5-0.3c0.9-0.6,1.7-1.1,3.4-1.1s2.5,0.5,3.4,1.1   c1.1,0.7,2.2,1.4,4.5,1.4c2.8,0,4.2-1,5.4-1.9l0.5-0.3c0.4-0.3,0.6-0.9,0.2-1.4C48.5,49.6,47.9,49.5,47.4,49.8z"></path></g></svg>