<svg xmlns="http://www.w3.org/2000/svg" data-name="Layer 1" viewBox="0 0 100 100" x="0px" y="0px"><title>Artboard 23</title><path d="M44.18,61.47a12.23,12.23,0,0,1,3.13,4.16h32.3v-41H26.83V39.38A23.52,23.52,0,0,1,44.18,61.47Zm8-20.21H59A7.08,7.08,0,1,1,59,49H52.19a3.89,3.89,0,0,1,0-7.77ZM99,9.81V80.5a4.58,4.58,0,0,1-4.58,4.58H85.73v4.85a4.84,4.84,0,0,1-4.84,4.84H66.79a4.84,4.84,0,0,1-4.84-4.84V85.07H48.35l.06-11.94h36.1a2.6,2.6,0,0,0,2.6-2.6V19.77a2.6,2.6,0,0,0-2.6-2.6H21.93a2.6,2.6,0,0,0-2.6,2.6v19A23,23,0,0,0,7.45,43.2V9.81A4.58,4.58,0,0,1,12,5.23h82.4A4.58,4.58,0,0,1,99,9.81Zm-92.81,85H36.14a5.2,5.2,0,0,0,5.19-5.19l.1-18.87a5.2,5.2,0,0,0-4.24-5.1V62A16.33,16.33,0,0,0,21.61,45.65h-.36A16.08,16.08,0,0,0,10,50.19,15.91,15.91,0,0,0,5.1,61.69V62h0v3.65a5.2,5.2,0,0,0-4,5.05L1,89.58A5.2,5.2,0,0,0,6.19,94.77Zm8-33.08a7,7,0,0,1,2.34-5.21,6.89,6.89,0,0,1,4.64-1.79,7,7,0,0,1,7,7.24v3.59h-14Z"></path></svg>