<svg xmlns:dc="http://purl.org/dc/elements/1.1/" xmlns:cc="http://creativecommons.org/ns#" xmlns:rdf="http://www.w3.org/1999/02/22-rdf-syntax-ns#" xmlns:svg="http://www.w3.org/2000/svg" xmlns="http://www.w3.org/2000/svg" xmlns:sodipodi="http://sodipodi.sourceforge.net/DTD/sodipodi-0.dtd" xmlns:inkscape="http://www.inkscape.org/namespaces/inkscape" version="1.1" x="0px" y="0px" viewBox="0 0 100 100"><g transform="translate(0,-952.36218)"><path style="text-indent:0;text-transform:none;direction:ltr;block-progression:tb;baseline-shift:baseline;color:#000000;enable-background:accumulate;" d="m 35.84375,957.36216 -2,3.4592 3.4375,1.9945 0.5,-0.8726 11.125,6.4195 c 0.0912,0.4189 0.37234,0.7927 0.75,0.9973 l 13.5625,7.7909 c 0.15719,0.4731 0.49923,0.8824 0.9375,1.1219 l 5.6875,3.2721 -51.84375,0 c -6.04211,0 -11,4.9443 -11,10.9696 l 0,41.88364 c 0,6.0254 4.95794,10.9695 11,10.9695 l 6,0 0,1.9945 4,0 0,-1.9945 44,0 0,1.9945 4,0 0,-1.9945 6,0 c 6.04206,0 11,-4.9441 11,-10.9695 l 0,-41.88364 c 0,-6.0253 -4.95789,-10.9696 -11,-10.9696 l -4.15625,0 -11.6875,-6.7313 c -0.50803,-0.3109 -0.94855,-0.2315 -1.4375,-0.2495 l -13.5625,-7.7908 c -0.44314,-0.2892 -0.81834,-0.1629 -1.25,-0.1563 l -11.125,-6.3885 0.5,-0.8725 c -1.14542,-0.6646 -2.29307,-1.3308 -3.4375,-1.9939 z M 18,987.52836 l 64,0 c 2.82189,0 5,2.1722 5,4.9862 l 0,41.88364 c 0,2.8141 -2.17806,4.9862 -5,4.9862 l -64,0 c -2.82194,0 -5,-2.1721 -5,-4.9862 l 0,-41.88364 c 0,-2.814 2.17811,-4.9862 5,-4.9862 z m 0,1.9945 c 0,6.1282 0,12.63514 0,17.95014 22.7517,0 44.0864,0 64,0 0,-6.1283 0,-12.63514 0,-17.95014 -22.14186,0 -44.98752,0 -64,0 z m 6,5.9833 52,0 0,5.98344 -37,0 0,-1.99444 c 0.0333,-1.5975 -1.42906,-3.0709 -3.03125,-3.0541 -1.58136,0.016 -3.00162,1.4773 -2.96875,3.0541 l 0,1.99444 -9,0 z m 33,13.96134 c -6.04211,0 -11,4.9442 -11,10.9695 l 0,5.9834 c 0,6.0253 4.95794,10.9695 11,10.9695 l 14,0 c 6.04206,0 11,-4.9442 11,-10.9695 l 0,-5.9834 c 0,-6.0253 -4.95789,-10.9695 -11,-10.9695 z m 0,5.9833 14,0 c 1.14818,0 2.16833,0.3812 3,0.9973 l -20,0 c 0.83167,-0.6161 1.85182,-0.9973 3,-0.9973 z m -4.59375,2.9917 23.1875,0 C 75.85254,1019.0522 76,1019.718 76,1020.437 l -24,0 c 0,-0.719 0.14746,-1.3848 0.40625,-1.9945 z M 19,1024.4259 c 0,2.7538 2.23858,4.9862 5,4.9862 2.76142,0 5,-2.2324 5,-4.9862 0,-2.7537 -2.23858,-4.9861 -5,-4.9861 -3,0 -5,1.9944 -5,4.9861 z m 12,0 c 0,2.7538 2.23858,4.9862 5,4.9862 2.76142,0 5,-2.2324 5,-4.9862 0,-2.7537 -2.23858,-4.9861 -5,-4.9861 -3,0 -5,1.9944 -5,4.9861 z m 21,-1.9944 24,0 0,1.9944 -24,0 z m 0,3.9889 24,0 c 0,0.719 -0.14746,1.3847 -0.40625,1.9944 l -23.1875,0 C 52.14746,1027.8051 52,1027.1394 52,1026.4204 z m 2,3.9889 20,0 c -0.83166,0.6161 -1.8518,0.9972 -3,0.9972 l -14,0 c -1.1482,0 -2.16834,-0.3811 -3,-0.9972 z" fill="#000000" fill-opacity="1" stroke="none" marker="none" visibility="visible" display="inline" overflow="visible"></path></g></svg>