<svg xmlns="http://www.w3.org/2000/svg" xmlns:xlink="http://www.w3.org/1999/xlink" version="1.1" x="0px" y="0px" viewBox="0 0 64 64" enable-background="new 0 0 64 64" xml:space="preserve"><g><path d="M63,45h-4V30c0-7.2-5.8-13-13-13h-2v-6.4C45.8,9.8,47,8,47,6c0-2.8-2.2-5-5-5H18c-2.8,0-5,2.2-5,5c0,2,1.2,3.8,3,4.6V17h-2   C6.8,17,1,22.8,1,30v31h4v2h2v-2h46v2h2v-2h4V47h4V45z M17.3,8.9C15.9,8.5,15,7.4,15,6c0-1.7,1.3-3,3-3h24c1.7,0,3,1.3,3,3   c0,1.4-0.9,2.5-2.3,2.9L42,9.1V17H18V9.1L17.3,8.9z M14,19h2h28h2c6.1,0,11,4.9,11,11v23H3V30C3,23.9,7.9,19,14,19z M3,59v-4h54v4   H3z"></path><path d="M47,35.1c1.3,0,2.6-0.5,3.6-1.5c2-2,2-5.3,0-7.3c-1-1-2.3-1.5-3.6-1.5c-1.4,0-2.7,0.5-3.6,1.5c-2,2-2,5.3,0,7.3   C44.4,34.6,45.7,35.1,47,35.1z M44.8,32.2c-1-1-1.2-2.4-0.6-3.6l4.2,4.2C47.2,33.4,45.8,33.2,44.8,32.2z M49.2,27.8   c1,1,1.2,2.4,0.6,3.6l-4.2-4.2c0.4-0.2,0.9-0.3,1.4-0.3C47.8,26.9,48.6,27.2,49.2,27.8z"></path><rect x="27" y="24" width="2" height="2"></rect><rect x="35" y="24" width="2" height="2"></rect><rect x="31" y="24" width="2" height="2"></rect><rect x="20" y="5" width="2" height="2"></rect><rect x="26" y="5" width="2" height="2"></rect><rect x="32" y="5" width="2" height="2"></rect><rect x="38" y="5" width="2" height="2"></rect><rect x="20" y="13" width="2" height="2"></rect><rect x="26" y="13" width="2" height="2"></rect><rect x="32" y="13" width="2" height="2"></rect><rect x="38" y="13" width="2" height="2"></rect><rect x="23" y="9" width="2" height="2"></rect><rect x="29" y="9" width="2" height="2"></rect><rect x="35" y="9" width="2" height="2"></rect></g></svg>