<svg xmlns="http://www.w3.org/2000/svg" xmlns:xlink="http://www.w3.org/1999/xlink" version="1.1" x="0px" y="0px" viewBox="0 0 100 100" enable-background="new 0 0 100 100" xml:space="preserve"><rect x="4.999" y="5" fill="none" width="89.999" height="90"></rect><g><path d="M9.09,70.97H90.9c0.27,0,0.479-0.22,0.479-0.479v-46.6c0-0.26-0.21-0.48-0.479-0.48H9.09c-0.26,0-0.47,0.22-0.47,0.48v46.6   C8.62,70.75,8.83,70.97,9.09,70.97z M40.1,32.52c2.83-1.91,6.24-3.03,9.9-3.03c9.76,0,17.7,7.94,17.7,17.7   c0,9.76-7.94,17.7-17.7,17.7c-3.66,0-7.07-1.12-9.9-3.029c-4.7-3.181-7.81-8.57-7.81-14.67S35.4,35.7,40.1,32.52z"></path><path d="M42.42,60.19c0.11,0.06,0.23,0.1,0.35,0.1s0.25-0.04,0.36-0.1l21.45-12.38c0.22-0.13,0.35-0.36,0.35-0.62   c0-0.25-0.13-0.49-0.35-0.62L43.13,34.19c-0.22-0.13-0.49-0.13-0.71,0c-0.06,0.03-0.1,0.07-0.15,0.12   c-0.13,0.13-0.21,0.31-0.21,0.5v24.76c0,0.189,0.08,0.37,0.21,0.5C42.32,60.12,42.36,60.16,42.42,60.19z"></path><path d="M93.81,19.79H6.19C5.53,19.79,5,20.32,5,20.98V73.4c0,0.659,0.53,1.189,1.19,1.189h16.78v2.49c0,1.72,1.19,3.13,2.65,3.13   h48.89c1.46,0,2.65-1.41,2.65-3.13v-2.49H93.81c0.66,0,1.19-0.53,1.19-1.189V20.98C95,20.32,94.47,19.79,93.81,19.79z M74.78,77.08   c0,0.43-0.2,0.7-0.29,0.75H25.64c-0.09-0.05-0.29-0.32-0.29-0.75v-2.49h49.43V77.08z M92.62,72.21H75.97H24.16H7.37V22.17h85.25   V72.21z"></path></g></svg>