<svg xmlns="http://www.w3.org/2000/svg" xmlns:xlink="http://www.w3.org/1999/xlink" version="1.1" x="0px" y="0px" viewBox="0 0 100 100" enable-background="new 0 0 100 100" xml:space="preserve"><rect x="4.999" y="5" fill="none" width="90.003" height="90"></rect><g><path d="M12.592,67.082c-0.496,0-0.899,0.402-0.899,0.898v3.594c0,0.496,0.403,0.898,0.899,0.898s0.898-0.402,0.898-0.898V67.98   C13.49,67.484,13.088,67.082,12.592,67.082z"></path><path d="M12.592,88.645c-0.496,0-0.899,0.404-0.899,0.898v3.594c0,0.496,0.403,0.898,0.899,0.898s0.898-0.402,0.898-0.898v-3.594   C13.49,89.049,13.088,88.645,12.592,88.645z"></path><path d="M12.592,77.863c-0.496,0-0.899,0.404-0.899,0.898v3.594c0,0.496,0.403,0.898,0.899,0.898s0.898-0.402,0.898-0.898v-3.594   C13.49,78.268,13.088,77.863,12.592,77.863z"></path><path d="M27.01,77.863c-0.496,0-0.898,0.404-0.898,0.898v3.594c0,0.496,0.403,0.898,0.898,0.898c0.497,0,0.898-0.402,0.898-0.898   v-3.594C27.909,78.268,27.507,77.863,27.01,77.863z"></path><path d="M27.01,88.645c-0.496,0-0.898,0.404-0.898,0.898v3.594c0,0.496,0.403,0.898,0.898,0.898c0.497,0,0.898-0.402,0.898-0.898   v-3.594C27.909,89.049,27.507,88.645,27.01,88.645z"></path><path d="M27.01,67.082c-0.496,0-0.898,0.402-0.898,0.898v3.594c0,0.496,0.403,0.898,0.898,0.898c0.497,0,0.898-0.402,0.898-0.898   V67.98C27.909,67.484,27.507,67.082,27.01,67.082z"></path><path d="M41.43,67.082c-0.497,0-0.898,0.402-0.898,0.898v3.594c0,0.496,0.401,0.898,0.898,0.898c0.496,0,0.898-0.402,0.898-0.898   V67.98C42.329,67.484,41.926,67.082,41.43,67.082z"></path><path d="M41.43,88.645c-0.497,0-0.898,0.404-0.898,0.898v3.594c0,0.496,0.401,0.898,0.898,0.898c0.496,0,0.898-0.402,0.898-0.898   v-3.594C42.329,89.049,41.926,88.645,41.43,88.645z"></path><path d="M41.43,77.863c-0.497,0-0.898,0.404-0.898,0.898v3.594c0,0.496,0.401,0.898,0.898,0.898c0.496,0,0.898-0.402,0.898-0.898   v-3.594C42.329,78.268,41.926,77.863,41.43,77.863z"></path><path d="M93.84,5.966h-5.658c-0.621,0-1.123,0.503-1.123,1.123v4.852h-4.537c-0.621,0-1.123,0.502-1.123,1.123v2.826H36.296   c-7.233,0-13.117,5.884-13.117,13.117V41.19L5.342,60.188c-0.307,0.326-0.391,0.805-0.212,1.215   c0.178,0.41,0.583,0.678,1.031,0.678h41.673c0.447,0,0.853-0.268,1.031-0.678s0.095-0.889-0.212-1.215L30.816,41.19V29.006   c0-3.022,2.458-5.48,5.48-5.48h45.102v2.706c0,0.621,0.502,1.123,1.123,1.123h4.537v4.852c0,0.621,0.502,1.124,1.123,1.124h5.658   c0.621,0,1.123-0.503,1.123-1.124V7.089C94.963,6.469,94.461,5.966,93.84,5.966z M92.717,31.083h-3.412v-4.852V13.063V8.211h3.412   V31.083z M45.239,59.832H8.756l16.365-17.429c0.028-0.03,0.053-0.061,0.078-0.094h3.596c0.024,0.033,0.051,0.064,0.079,0.094   L45.239,59.832z M36.296,21.279c-4.261,0-7.727,3.466-7.727,7.727v11.956h-3.145V29.006c0-5.994,4.877-10.871,10.872-10.871h46   v3.145H36.296z M83.645,25.109v-0.821v-1.886v-5.391v-1.797v-1.028h4.313v10.923H83.645z"></path></g></svg>