<svg xmlns="http://www.w3.org/2000/svg" xmlns:xlink="http://www.w3.org/1999/xlink" version="1.1" x="0px" y="0px" viewBox="0 0 100 100" enable-background="new 0 0 100 100" xml:space="preserve"><path d="M92.5,90h-10v-7.6l6.6,2.5c0.3,0.1,0.6,0.2,0.9,0.2c0.5,0,1-0.2,1.4-0.4c0.7-0.5,1.1-1.2,1.1-2.1V70c0-1-0.6-2-1.6-2.3  l-20-7.5c-0.8-0.3-1.6-0.2-2.3,0.3c-0.7,0.5-1.1,1.2-1.1,2.1V75c0,1,0.6,2,1.6,2.3l8.4,3.1V90h-25v-7.6l6.6,2.5  c0.3,0.1,0.6,0.2,0.9,0.2c0.5,0,1-0.2,1.4-0.4c0.7-0.5,1.1-1.2,1.1-2.1V70c0-1-0.6-2-1.6-2.3l-20-7.5c-0.8-0.3-1.6-0.2-2.3,0.3  c-0.7,0.5-1.1,1.2-1.1,2.1V75c0,1,0.6,2,1.6,2.3l8.4,3.1V90h-25v-7.6l6.6,2.5c0.3,0.1,0.6,0.2,0.9,0.2c0.5,0,1-0.2,1.4-0.4  c0.7-0.5,1.1-1.2,1.1-2.1V70c0-1-0.6-2-1.6-2.3l-20-7.5c-0.8-0.3-1.6-0.2-2.3,0.3c-0.7,0.5-1.1,1.2-1.1,2.1V75c0,1,0.6,2,1.6,2.3  l8.4,3.1V90h-10C6.1,90,5,91.1,5,92.5S6.1,95,7.5,95h85c1.4,0,2.5-1.1,2.5-2.5S93.9,90,92.5,90z M72.5,66.1l15,5.6v7.2l-15-5.6V66.1  z M42.5,66.1l15,5.6v7.2l-15-5.6V66.1z M12.5,66.1l15,5.6v7.2l-15-5.6V66.1z"></path><path d="M80,30c0-5.5-4.5-10-10-10s-10,4.5-10,10s4.5,10,10,10S80,35.5,80,30z M70,35c-2.8,0-5-2.2-5-5s2.2-5,5-5s5,2.2,5,5  S72.8,35,70,35z"></path><path d="M70,17.5c1.4,0,2.5-1.1,2.5-2.5V7.5C72.5,6.1,71.4,5,70,5s-2.5,1.1-2.5,2.5V15C67.5,16.4,68.6,17.5,70,17.5z"></path><path d="M67.5,45v7.5c0,1.4,1.1,2.5,2.5,2.5s2.5-1.1,2.5-2.5V45c0-1.4-1.1-2.5-2.5-2.5S67.5,43.6,67.5,45z"></path><path d="M60.3,18.3c0.5,0.8,1.3,1.3,2.2,1.3c0.4,0,0.9-0.1,1.2-0.3c1.2-0.7,1.6-2.2,0.9-3.4l-3.8-6.5c-0.7-1.2-2.2-1.6-3.4-0.9  c-1.2,0.7-1.6,2.2-0.9,3.4L60.3,18.3z"></path><path d="M79.1,50.7c0.5,0.8,1.3,1.3,2.2,1.3c0.4,0,0.9-0.1,1.2-0.3c1.2-0.7,1.6-2.2,0.9-3.4l-3.8-6.5c-0.7-1.2-2.2-1.6-3.4-0.9  c-1.2,0.7-1.6,2.2-0.9,3.4L79.1,50.7z"></path><path d="M49.3,20.9l6.5,3.8c0.4,0.2,0.8,0.3,1.2,0.3c0.9,0,1.7-0.4,2.2-1.3c0.7-1.2,0.3-2.7-0.9-3.4l-6.5-3.8  c-1.2-0.7-2.7-0.3-3.4,0.9C47.7,18.7,48.1,20.2,49.3,20.9z"></path><path d="M89.5,43.8c0.9,0,1.7-0.4,2.2-1.3c0.7-1.2,0.3-2.7-0.9-3.4l-6.5-3.8c-1.2-0.7-2.7-0.3-3.4,0.9c-0.7,1.2-0.3,2.7,0.9,3.4  l6.5,3.8C88.6,43.6,89.1,43.8,89.5,43.8z"></path><path d="M47.5,32.5H55c1.4,0,2.5-1.1,2.5-2.5s-1.1-2.5-2.5-2.5h-7.5c-1.4,0-2.5,1.1-2.5,2.5S46.1,32.5,47.5,32.5z"></path><path d="M92.5,27.5H85c-1.4,0-2.5,1.1-2.5,2.5s1.1,2.5,2.5,2.5h7.5c1.4,0,2.5-1.1,2.5-2.5S93.9,27.5,92.5,27.5z"></path><path d="M59.2,36.3c-0.7-1.2-2.2-1.6-3.4-0.9l-6.5,3.8c-1.2,0.7-1.6,2.2-0.9,3.4c0.5,0.8,1.3,1.3,2.2,1.3c0.4,0,0.9-0.1,1.2-0.3  l6.5-3.8C59.5,39,59.9,37.4,59.2,36.3z"></path><path d="M80.8,23.8c0.5,0.8,1.3,1.3,2.2,1.3c0.4,0,0.9-0.1,1.2-0.3l6.5-3.8c1.2-0.7,1.6-2.2,0.9-3.4c-0.7-1.2-2.2-1.6-3.4-0.9  l-6.5,3.8C80.5,21,80.1,22.6,80.8,23.8z"></path><path d="M57.5,51.7c0.4,0.2,0.8,0.3,1.2,0.3c0.9,0,1.7-0.4,2.2-1.3l3.8-6.5c0.7-1.2,0.3-2.7-0.9-3.4c-1.2-0.7-2.7-0.3-3.4,0.9  l-3.8,6.5C55.9,49.4,56.3,51,57.5,51.7z"></path><path d="M76.3,19.2c0.4,0.2,0.8,0.3,1.2,0.3c0.9,0,1.7-0.4,2.2-1.3l3.8-6.5c0.7-1.2,0.3-2.7-0.9-3.4c-1.2-0.7-2.7-0.3-3.4,0.9  l-3.8,6.5C74.6,17,75.1,18.5,76.3,19.2z"></path></svg>