<?xml version="1.0" encoding="utf-8"?>
<!-- Generator: Adobe Illustrator 16.0.0, SVG Export Plug-In . SVG Version: 6.00 Build 0)  -->
<!DOCTYPE svg PUBLIC "-//W3C//DTD SVG 1.1//EN" "http://www.w3.org/Graphics/SVG/1.1/DTD/svg11.dtd">
<svg version="1.1" id="Layer_1" xmlns="http://www.w3.org/2000/svg" xmlns:xlink="http://www.w3.org/1999/xlink" x="0px" y="0px"
	 width="612px" height="792px" viewBox="0 0 612 792" enable-background="new 0 0 612 792" xml:space="preserve">
<path fill="#5E5D5D" d="M164.714,499.643h-11.206c-5.067,0-9.18,4.106-9.18,9.18v66.053c0,5.074,4.112,9.181,9.18,9.181h304.99
	c5.067,0,9.18-4.106,9.18-9.181v-66.053c0-5.073-4.112-9.18-9.18-9.18H447.14l-0.007-50.35c0.092-2.166,0.159-4.346,0.159-6.53
	c0-65.184-44.161-121.592-107.388-137.167c-22.203-5.477-45.618-5.477-67.797,0c-63.232,15.582-107.394,71.983-107.394,137.173
	V499.643z M449.318,565.701h-286.63v-47.693h11.206h264.06h11.359v47.693H449.318z M183.074,442.769
	c0-56.713,38.415-105.79,93.428-119.339c19.321-4.768,39.664-4.774,59.015,0c55.001,13.549,93.422,62.62,93.422,119.339
	c0,1.916-0.067,3.825-0.153,6.12v50.754H183.074V442.769z"/>
<path d="M323.062,338.447c-4.927-1.206-9.89,1.799-11.102,6.72c-1.212,4.926,1.793,9.896,6.72,11.107
	c45.202,11.132,76.77,51.469,76.77,98.08c0,5.073,4.112,9.18,9.18,9.18s9.18-4.106,9.18-9.18
	C413.804,399.274,376.496,351.612,323.062,338.447z"/>
<path fill="#5E5D5D" d="M431.13,527.011h-89.064c-5.067,0-9.181,4.106-9.181,9.18c0,5.074,4.113,9.181,9.181,9.181h89.07
	c5.067,0,9.18-4.106,9.18-9.181C440.315,531.117,436.197,527.011,431.13,527.011z"/>
<path fill="#5E5D5D" d="M306.006,265.546c5.067,0,9.181-4.106,9.181-9.18v-39.248c0-5.074-4.113-9.18-9.181-9.18
	s-9.18,4.106-9.18,9.18v39.248C296.826,261.439,300.938,265.546,306.006,265.546z"/>
<path fill="#5E5D5D" d="M75.918,437.071h51.867c5.067,0,9.18-4.106,9.18-9.18c0-5.074-4.113-9.181-9.18-9.181H75.918
	c-5.067,0-9.18,4.106-9.18,9.181C66.739,432.965,70.851,437.071,75.918,437.071z"/>
<path fill="#5E5D5D" d="M479.79,437.071h56.285c5.067,0,9.18-4.106,9.18-9.18c0-5.074-4.112-9.181-9.18-9.181H479.79
	c-5.067,0-9.181,4.106-9.181,9.181C470.609,432.965,474.723,437.071,479.79,437.071z"/>
<path fill="#5E5D5D" d="M428.247,312.615c2.35,0,4.7-0.894,6.493-2.687l33.85-33.85c3.587-3.58,3.587-9.4,0-12.98
	c-3.586-3.586-9.395-3.586-12.98,0l-33.85,33.85c-3.586,3.58-3.586,9.4,0,12.98C423.547,311.715,425.896,312.615,428.247,312.615z"
	/>
<path fill="#5E5D5D" d="M172.841,309.935c1.793,1.793,4.144,2.687,6.494,2.687s4.7-0.894,6.493-2.687
	c3.586-3.58,3.586-9.395,0-12.98l-31.695-31.696c-3.586-3.586-9.395-3.586-12.98,0c-3.586,3.581-3.586,9.395,0,12.98
	L172.841,309.935z"/>
</svg>
