<svg version="1.1" id="Layer_1" xmlns="http://www.w3.org/2000/svg" xmlns:xlink="http://www.w3.org/1999/xlink" x="0px" y="0px"
	 width="1133px" height="567px" viewBox="0 0 283.46 141.73" enable-background="new 0 0 283.46 141.73" xml:space="preserve">


<g id="Outdoor_x5F_Kamera">
	<g>
		<g>
			<polygon fill="#FFFFFF" points="214.839,62.716 214.577,63.044 210.39,61.888 211.152,59.094 212.962,59.579 212.962,57.348
				214.025,57.348 214.025,59.868 216.48,60.524 215.902,61.285 216.873,61.56 216.48,63.162 			"/>
			<path fill="#4F4E49" d="M213.841,57.518v2.48l2.336,0.63l-0.564,0.748l1.051,0.302l-0.315,1.273l-1.588-0.434l-0.249,0.342
				l-3.898-1.076l0.67-2.454l1.863,0.499v-2.284h0.695 M214.196,57.177h-0.354h-0.709h-0.354v0.354v1.837l-1.431-0.38l-0.341-0.093
				l-0.092,0.342l-0.67,2.454l-0.092,0.341l0.342,0.092l3.897,1.076l0.223,0.065l0.145-0.196l0.104-0.145l1.352,0.381l0.342,0.092
				l0.092-0.354l0.314-1.273l0.079-0.328l-0.327-0.092l-0.564-0.157l0.262-0.341l0.314-0.42l-0.498-0.132l-2.073-0.551v-2.205
				v-0.367H214.196z"/>
		</g>
		<polygon fill="#4F4E49" points="214.642,62.663 215.757,61.18 216.204,61.18 215.482,62.886 		"/>
	</g>
</g>


</svg>
