<svg width="212" height="212" viewBox="0 0 212 212" xmlns="http://www.w3.org/2000/svg"><title>oven</title><g fill="#605F5E" fill-rule="evenodd"><path d="M153.201 7H59.8C41.4 7 26.7 22.9 26.7 41.4v131.9c0 18.4 14.8 32.5 33.1 32.5h93.401c18.4 0 32.9-14.1 32.9-32.5v-132C186.102 22.9 171.5 7 153.201 7zM59.8 18.2h93.401c12.199 0 21.6 10.9 21.6 23.1v12.5H37.9V41.3c0-12.2 9.7-23.1 21.9-23.1zm93.401 176.301H59.8c-12.2 0-21.9-9-21.9-21.301V57.6h136.9v115.601c0 12.199-9.5 21.3-21.599 21.3z"/><path d="M105.3 44.2c3.6 0 6.6-2.9 6.6-6.6 0-3.6-2.9-6.6-6.6-6.6-3.6 0-6.6 2.9-6.6 6.6.1 3.6 3 6.6 6.6 6.6zm0-9.4c1.6 0 2.801 1.3 2.801 2.8 0 1.6-1.301 2.8-2.801 2.8-1.6 0-2.8-1.3-2.8-2.8 0-1.5 1.3-2.8 2.8-2.8zM82.8 44.2c3.6 0 6.6-2.9 6.6-6.6 0-3.6-2.899-6.6-6.6-6.6-3.6 0-6.6 2.9-6.6 6.6 0 3.6 3 6.6 6.6 6.6zm0-9.4c1.6 0 2.8 1.3 2.8 2.8 0 1.6-1.3 2.8-2.8 2.8-1.6 0-2.8-1.3-2.8-2.8 0-1.5 1.2-2.8 2.8-2.8zM59.5 44.2c3.6 0 6.6-2.9 6.6-6.6 0-3.6-2.9-6.6-6.6-6.6-3.6 0-6.6 2.9-6.6 6.6 0 3.6 2.9 6.6 6.6 6.6zm0-9.4c1.6 0 2.8 1.3 2.8 2.8 0 1.6-1.3 2.8-2.8 2.8-1.6 0-2.8-1.3-2.8-2.8-.1-1.5 1.2-2.8 2.8-2.8zM153.201 44.2c3.6 0 6.6-2.9 6.6-6.6 0-3.6-2.898-6.6-6.6-6.6-3.6 0-6.6 2.9-6.6 6.6.001 3.6 3.001 6.6 6.6 6.6zm0-9.4c1.6 0 2.799 1.3 2.799 2.8 0 1.6-1.299 2.8-2.799 2.8-1.6 0-2.801-1.3-2.801-2.8 0-1.5 1.202-2.8 2.801-2.8zM141.701 68.8H71.3c-9.9 0-18.3 8.4-18.3 18.301v70.4c0 9.897 8.5 18.199 18.3 18.199h70.401c9.9 0 18.1-8.302 18.1-18.199v-70.4C159.8 77.2 151.5 68.8 141.701 68.8zm10.599 88.701c0 5.699-4.899 10.699-10.6 10.699H71.3c-5.7 0-10.8-5-10.8-10.699V87.1c0-5.7 5.1-10.801 10.8-10.801h70.401c5.699 0 10.6 5 10.6 10.801l-.001 70.401z"/></g></svg>