<svg width="212" height="212" viewBox="0 0 212 212" xmlns="http://www.w3.org/2000/svg"><title>pc</title><g fill="#605F5E" fill-rule="evenodd"><path d="M147.1 60.2h47c1 0 1.899-.8 1.899-1.899 0-1.101-.802-1.9-1.899-1.9h-47c-1 0-1.898.8-1.898 1.9A1.896 1.896 0 0 0 147.1 60.2M147.1 71.5h47c1 0 1.899-.801 1.899-1.9 0-1.099-.802-1.9-1.899-1.9h-47c-1 0-1.898.801-1.898 1.9.098 1.1.898 1.9 1.898 1.9M113.3 45.2H19.2c-8 0-15.2 7.3-15.2 15.3v72c0 8 7.2 13.898 15.2 13.898h30.3l-2.6 7.5H39c-2.1 0-3.1 1.201-3.1 3.301v12.9c0 2.1 1 4.5 3.1 4.5h54.6c2.101 0 4.201-2.4 4.201-4.5v-12.802c0-2.1-2.101-3.299-4.201-3.299h-7.9l-2.6-7.5h30.3c8 0 14.5-5.899 14.5-13.899v-72c-.3-8.099-6.6-15.399-14.6-15.399zM79.6 158.6c.6 1.399 1.899 2.899 3.5 2.899h7.2v5.601h-47v-5.6h6c1.5 0 2.899-1.5 3.5-2.898l4.6-12.102h17.4l4.8 12.1zm36.8-26.1c0 1.799-1.4 2.699-3.199 2.699h-94c-1.8 0-3.899-.9-3.899-2.699v-72c0-1.801 2.1-4.101 3.899-4.101h94.1c1.799 0 3.199 2.3 3.199 4.101v72h-.1z"/><path d="M22.7 122.1h88.1v-60H22.7v60zm3.8-56.2h80.6v52.5H26.5V65.9zM66.2 126.4c-2.1 0-3.8 1.699-3.8 3.801 0 2.1 1.7 3.799 3.8 3.799 2.101 0 3.8-1.701 3.8-3.801s-1.7-3.799-3.8-3.799M208.3 46.6c0-4.9-4-8.9-8.899-8.9h-59c-4.9 0-8.9 4-8.9 8.9v119c0 4.899 4 8.899 8.9 8.899h59c4.899 0 8.899-4 8.899-8.899v-119zM142.6 49h54.5v116.201h-54.398V49h-.102z"/><path d="M170.6 129.201c-3.398 0-6.199 2.801-6.199 6.199 0 3.397 2.801 6.199 6.199 6.199 3.399 0 6.2-2.802 6.2-6.199 0-3.5-2.7-6.199-6.2-6.199M170.6 147c-3.398 0-6.199 2.799-6.199 6.199s2.801 6.199 6.199 6.199c3.399 0 6.2-2.799 6.2-6.199S174.1 147 170.6 147zm0 8.6c-1.3 0-2.398-1.101-2.398-2.398 0-1.301 1.1-2.4 2.398-2.4 1.301 0 2.399 1.102 2.399 2.4.101 1.298-.999 2.398-2.399 2.398z"/></g></svg>