<svg width="212" height="212" viewBox="0 0 212 212" xmlns="http://www.w3.org/2000/svg"><title>personal-scale</title><g fill="#605F5E" fill-rule="evenodd"><path d="M196 33.7c0-9.8-7.9-17.7-17.7-17.7H33.7C23.9 16 16 23.9 16 33.7v144.6c0 9.8 7.9 17.7 17.7 17.7h144.6c9.8 0 17.7-7.9 17.7-17.7V33.7zm-70.3 37.5l-3.4-27.4-7.7 26.6c-2.898-.101-5.699-.2-8.699-.2C78.6 70.2 51.6 75.5 27.3 85.8V51.1C51.6 42.3 79 37.8 106 37.8s52.5 4.5 78.8 13.3v34.7C166 78 146 73.1 125.7 71.2zm-92.3-44H178c3.5 0 6.7 2.7 6.7 6.3v13.6c-26.2-8.6-51.7-13-78.7-13s-54.4 4.4-78.8 13.1V33.5c0-3.5 2.7-6.3 6.2-6.3zM178 184.8H33.4c-3.5 0-6.1-3-6.1-6.6V89.9C51.6 79.3 78.7 74 106 74c27.3 0 54.4 5.3 78.8 15.9v88.3c0 3.5-3.2 6.6-6.8 6.6z"/><path d="M162.8 94.6l-11-6.399c-2.5-1.5-5.2-2.3-7.8-2.3-6.5 0-11.5 4.6-12.8 11.8l-10.9 62c-.8 4.6-.1 9.3 2 13.1 2.2 4 5.8 6.801 10 7.5.8.102 1.601.2 2.4.2 7.5 0 15.3-5.899 18.5-14l18.5-46.601c3.4-9-.5-20.4-8.9-25.3zm1.7 22.6L146 163.8c-2 5.2-7.1 9.2-11.5 9.2-.4 0-.7 0-1.1-.1-1.9-.301-3.5-1.7-4.7-3.7-1.3-2.3-1.7-5.3-1.2-8.2l10.9-62c.6-3.5 2.6-5.6 5.397-5.6 1.302 0 2.7.399 4 1.199l11 6.4C164.2 104.1 166.8 111.5 164.5 117.2zM80.2 97.7C79 90.5 74 85.9 67.5 85.9c-2.6 0-5.3.8-7.8 2.3l-11 6.399c-8.4 4.9-12.3 16.301-8.8 25.4L58.4 166.6c3.2 8.102 11 14 18.5 14 .8 0 1.6-.101 2.399-.199 4.101-.699 7.7-3.5 10-7.5 2.101-3.801 2.8-8.5 2-13.102L80.2 97.7zm2.4 71.5c-1.1 2.1-2.8 3.399-4.699 3.7-.301.1-.701.1-1.101.1-4.4 0-9.5-4.1-11.5-9.2l-18.5-46.6c-2.2-5.7.3-13.101 5.6-16.101l11-6.399c1.4-.8 2.8-1.2 4-1.2 2.7 0 4.8 2.1 5.4 5.6l10.9 62c.6 2.8.2 5.8-1.1 8.1zM138.5 46c-1-.1-2 .6-2.1 1.6l-1.301 9.6c-.101 1 .602 2 1.602 2.1h.3c.899 0 1.7-.7 1.899-1.6l1.301-9.601C140.3 47.1 139.5 46.2 138.5 46M154.7 48.9c-1-.2-2 .399-2.2 1.399l-2 9.4c-.2 1 .4 2 1.4 2.2h.397c.899 0 1.603-.601 1.802-1.5l2-9.4c.301-.899-.399-1.899-1.399-2.099M170.7 52.8c-1-.3-2 .3-2.3 1.3l-2.7 9.301c-.3 1 .3 2 1.3 2.3.2.1.3.1.5.1.8 0 1.6-.5 1.8-1.399L172 55.1c.3-.9-.3-2-1.3-2.3M43.1 54.1c-.3-1-1.3-1.6-2.3-1.3-1 .3-1.6 1.3-1.3 2.3l2.7 9.301c.2.8 1 1.399 1.8 1.399.2 0 .3 0 .5-.1 1-.3 1.6-1.3 1.3-2.3l-2.7-9.3M58.9 50.3c-.2-1-1.2-1.7-2.2-1.399-1 .199-1.7 1.199-1.4 2.199l2 9.4c.2.9 1 1.5 1.8 1.5h.4c1-.2 1.7-1.2 1.4-2.2l-2-9.5M72.9 46c-1 .1-1.7 1.1-1.6 2.1l1.3 9.601c.1.899.9 1.6 1.9 1.6h.3c1-.1 1.7-1.1 1.6-2.1L75 47.6c-.1-1-1.1-1.7-2.1-1.6M89.3 44.3c-1 .1-1.8 1-1.7 2l.7 9.601c.101 1 .9 1.699 1.9 1.699h.1c1-.1 1.8-1 1.7-2l-.7-9.6c-.1-1-1-1.8-2-1.7M105.7 43.7c-.101 0-.2.1-.4.1-.1 0-.2 0-.399.1-.101 0-.101.1-.2.1-.3.2-.5.5-.7.9-.1.2 0 .5 0 .7v9.6c0 .3-.1.5 0 .7.3.699.9 1.199 1.7 1.199 1 0 1.898-.8 1.898-1.899v-9.7c.001-.9-.799-1.8-1.899-1.8"/></g></svg>