<svg width="212" height="212" viewBox="0 0 212 212" xmlns="http://www.w3.org/2000/svg"><title>sensor-humidity</title><g fill="#605F5E" fill-rule="evenodd"><path d="M172.111 127.712a281.189 281.189 0 0 0 2.055 3.152c3.634 5.521 7.066 10.735 7.066 15.265 0 5.028-4.092 9.119-9.121 9.119-5.028 0-9.12-4.091-9.12-9.119 0-4.527 3.433-9.743 7.065-15.265.678-1.029 1.372-2.08 2.055-3.152zm0-19.756c0 13.103-16.416 24.812-16.416 38.173 0 9.073 7.349 16.414 16.416 16.414 9.07 0 16.416-7.341 16.416-16.414 0-13.361-16.416-25.07-16.416-38.173zM139.279 93.093a296.044 296.044 0 0 0 2.054 3.152c3.635 5.521 7.067 10.737 7.067 15.266 0 5.028-4.092 9.119-9.121 9.119-5.028 0-9.119-4.091-9.119-9.119 0-4.528 3.433-9.745 7.066-15.266.678-1.029 1.37-2.079 2.053-3.152zm0-19.755c0 13.1-16.414 24.811-16.414 38.172 0 9.072 7.347 16.414 16.414 16.414 9.07 0 16.416-7.342 16.416-16.414 0-13.361-16.416-25.072-16.416-38.172zM139.279 162.33a276.61 276.61 0 0 0 2.054 3.15c3.635 5.522 7.067 10.738 7.067 15.268 0 5.027-4.092 9.118-9.121 9.118-5.027 0-9.118-4.091-9.118-9.118 0-4.528 3.433-9.744 7.065-15.268a237.56 237.56 0 0 0 2.053-3.15zm0-19.755c0 13.1-16.413 24.812-16.413 38.173 0 9.072 7.346 16.413 16.413 16.413 9.07 0 16.416-7.341 16.416-16.413 0-13.361-16.416-25.073-16.416-38.173z"/><g><path d="M0 93.394V82.405c45.441 0 82.411-36.967 82.411-82.405h10.988C93.399 51.498 51.5 93.394 0 93.394z"/><path d="M0 61.398V50.41c27.797 0 50.412-22.614 50.412-50.41H61.4c0 33.855-27.544 61.398-61.4 61.398z"/></g></g></svg>