<svg width="212" height="212" viewBox="0 0 212 212" xmlns="http://www.w3.org/2000/svg"><title>sensor-smoke</title><g fill="#605F5E" fill-rule="evenodd"><path d="M192.479 197.457H46.567a5.494 5.494 0 0 1-4.758-8.241l72.953-126.353a5.493 5.493 0 0 1 9.516 0l72.957 126.353a5.496 5.496 0 0 1-4.756 8.241zM56.083 186.469H182.96L119.52 76.598 56.083 186.469z"/><path d="M136.654 139.064c-2.977-10.443.607-15.48.607-15.48s-4.684 1.581-6.789 5.718c-2.057 4.046-2.207 8.622-2.207 8.622s-6.432-6.955-8.699-15.252c-2.283-8.39 1.604-17.083 1.604-17.083s-10.293 4.575-10.753 17.769c-.274 7.929 1.896 10.908 2.06 15.173.155 4.042-2.67 8.616-2.67 8.616 2.291-14.791-6.099-17.918-6.099-17.918 3.28 18.606-5.948 14.106-5.871 27.754.062 11.061 9.358 15.604 16.468 16.979-2.63-1.768-4.345-4.555-4.345-7.289 0-5.798 4.347-7.934 2.517-15.556 0 0 3.049.762 3.127 6.86 0 0 2.396-.724 4.576-6.556 1.905-5.108 0-9.001 0-9.001s4.041 2.061 4.194 7.704c.151 5.642-1.146 6.101-1.067 8.155.073 2.061 2.362 4.808 2.362 4.808s-.7-2.291-.61-4.194c.156-3.279 2.518-5.033 2.518-5.033s-.611 3.893.458 5.869c1.065 1.984 2.673 3.891 2.673 6.942 0 2.396-1.316 4.825-3.4 6.58 6.516-1.909 13.283-6.491 13.842-16.419.457-8.081-1.72-7.995-4.496-17.768z"/><g><path d="M0 93.394V82.405c45.441 0 82.411-36.967 82.411-82.405h10.988C93.399 51.498 51.5 93.394 0 93.394z"/><path d="M0 61.398V50.41c27.797 0 50.412-22.614 50.412-50.41H61.4c0 33.855-27.544 61.398-61.4 61.398z"/></g></g></svg>