<svg width="212" height="212" viewBox="0 0 212 212" xmlns="http://www.w3.org/2000/svg"><title>sensor-CO2</title><g fill="#605F5E" fill-rule="evenodd"><path d="M0 93.394V82.405c45.441 0 82.411-36.967 82.411-82.405h10.988C93.399 51.498 51.5 93.394 0 93.394z"/><path d="M0 61.398V50.41c27.797 0 50.412-22.614 50.412-50.41H61.4c0 33.855-27.544 61.398-61.4 61.398z"/><g><path d="M99.218 128.177a11.845 11.845 0 0 0-4.412-3.36c-1.748-.781-3.765-1.172-6.054-1.172-2.288 0-4.406.437-6.359 1.332a15.109 15.109 0 0 0-5.078 3.705c-1.434 1.588-2.548 3.474-3.36 5.657-.805 2.188-1.207 4.558-1.207 7.104 0 2.602.402 4.982 1.207 7.146.812 2.158 1.917 4.03 3.323 5.622a15.079 15.079 0 0 0 4.958 3.709c1.899.885 3.938 1.327 6.129 1.327 2.497 0 4.706-.521 6.633-1.562 1.926-1.047 3.513-2.496 4.768-4.369l10.147 7.567c-2.343 3.276-5.312 5.701-8.897 7.257-3.6 1.567-7.295 2.35-11.086 2.35-4.323 0-8.306-.674-11.947-2.037-3.643-1.346-6.799-3.286-9.457-5.817-2.65-2.515-4.716-5.575-6.204-9.17-1.479-3.587-2.221-7.596-2.221-12.021 0-4.426.742-8.437 2.221-12.027 1.488-3.589 3.554-6.646 6.204-9.173 2.658-2.521 5.814-4.462 9.457-5.812 3.642-1.357 7.625-2.033 11.947-2.033 1.556 0 3.183.146 4.877.432a26.27 26.27 0 0 1 4.998 1.361 22.87 22.87 0 0 1 4.722 2.5 19.204 19.204 0 0 1 4.059 3.83l-9.368 7.654zM113.583 141.443c0-4.426.739-8.436 2.222-12.026 1.488-3.589 3.553-6.646 6.207-9.173 2.654-2.521 5.803-4.462 9.452-5.812 3.642-1.356 7.622-2.033 11.946-2.033 4.314 0 8.299.677 11.943 2.033 3.644 1.352 6.791 3.293 9.444 5.812 2.657 2.527 4.726 5.584 6.204 9.173 1.484 3.592 2.23 7.603 2.23 12.026 0 4.426-.746 8.436-2.23 12.021-1.479 3.594-3.547 6.655-6.204 9.17-2.653 2.531-5.802 4.473-9.444 5.817-3.646 1.362-7.629 2.037-11.943 2.037-4.324 0-8.307-.675-11.946-2.037-3.649-1.345-6.798-3.286-9.452-5.817-2.654-2.515-4.719-5.576-6.207-9.17-1.483-3.585-2.222-7.594-2.222-12.021zm12.647 0c0 2.602.406 4.982 1.213 7.146.805 2.158 1.961 4.03 3.474 5.622 1.501 1.591 3.317 2.816 5.426 3.709 2.101.885 4.462 1.327 7.067 1.327 2.602 0 4.949-.442 7.062-1.327 2.109-.893 3.909-2.118 5.428-3.709 1.508-1.592 2.662-3.464 3.473-5.622.809-2.162 1.207-4.544 1.207-7.146 0-2.549-.398-4.916-1.207-7.104-.811-2.185-1.965-4.069-3.473-5.657-1.519-1.591-3.317-2.822-5.428-3.705-2.111-.896-4.461-1.332-7.062-1.332-2.605 0-4.967.437-7.067 1.332-2.108.883-3.925 2.114-5.426 3.705-1.513 1.588-2.669 3.474-3.474 5.657-.806 2.188-1.213 4.557-1.213 7.104zM178.12 187.848l12.515-11.244a26.076 26.076 0 0 0 1.916-1.955c.635-.729.951-1.58.951-2.551 0-1.092-.391-1.951-1.188-2.574-.791-.621-1.707-.936-2.771-.936-1.273 0-2.27.398-2.98 1.184-.713.793-1.115 1.771-1.211 2.92l-6.817-.506c.088-1.664.437-3.119 1.042-4.346.605-1.229 1.41-2.255 2.412-3.072a10.106 10.106 0 0 1 3.523-1.838c1.35-.412 2.818-.619 4.396-.619 1.451 0 2.818.207 4.096.619 1.275.403 2.387 1.01 3.318 1.816.947.801 1.682 1.811 2.214 3.021.534 1.219.792 2.631.792 4.236 0 1.036-.104 1.967-.312 2.8a9.131 9.131 0 0 1-.895 2.274 10.076 10.076 0 0 1-1.342 1.887 20.594 20.594 0 0 1-1.68 1.692l-9.791 8.416h14.295v6.007H178.12v-7.231z"/></g></g></svg>