<svg width="212" height="212" viewBox="0 0 212 212" xmlns="http://www.w3.org/2000/svg"><title>sensor-luminance.svg</title><g fill="#605F5E" fill-rule="evenodd"><path d="M0 93.394V82.405c45.441 0 82.411-36.967 82.411-82.405h10.988C93.399 51.498 51.5 93.394 0 93.394z"/><path d="M0 61.398V50.41c27.797 0 50.412-22.614 50.412-50.41H61.4c0 33.855-27.544 61.398-61.4 61.398z"/><g><path d="M131.252 105.093c14.318 0 25.969 11.65 25.969 25.97 0 14.315-11.648 25.963-25.969 25.963-14.321 0-25.969-11.646-25.969-25.963 0-14.32 11.651-25.97 25.969-25.97zm0-7.325c-18.385 0-33.294 14.904-33.294 33.294 0 18.383 14.91 33.287 33.294 33.287 18.391 0 33.294-14.904 33.294-33.287 0-18.39-14.903-33.294-33.294-33.294zM131.256 89.152a3.664 3.664 0 0 1-3.663-3.663V66.437a3.664 3.664 0 0 1 7.326 0v19.052a3.664 3.664 0 0 1-3.663 3.663zM131.256 199.345a3.664 3.664 0 0 1-3.663-3.663v-19.039a3.664 3.664 0 0 1 3.663-3.663 3.664 3.664 0 0 1 3.663 3.663v19.039a3.664 3.664 0 0 1-3.663 3.663zM85.678 134.726H66.626a3.664 3.664 0 0 1 0-7.326h19.052a3.664 3.664 0 0 1 0 7.326zM195.879 134.726h-19.044a3.664 3.664 0 0 1-3.663-3.663 3.664 3.664 0 0 1 3.663-3.663h19.044a3.664 3.664 0 0 1 3.663 3.663 3.664 3.664 0 0 1-3.663 3.663zM99.024 102.494a3.65 3.65 0 0 1-2.589-1.072L82.961 87.956a3.663 3.663 0 1 1 5.179-5.181l13.473 13.466a3.663 3.663 0 0 1-2.589 6.253zM176.958 180.415a3.65 3.65 0 0 1-2.588-1.071l-13.478-13.46a3.662 3.662 0 0 1-.004-5.18 3.662 3.662 0 0 1 5.18-.004l13.478 13.46a3.662 3.662 0 0 1-2.588 6.255zM85.551 180.419a3.663 3.663 0 0 1-2.589-6.254l13.473-13.464a3.663 3.663 0 1 1 5.178 5.182L88.14 179.347a3.65 3.65 0 0 1-2.589 1.072zM163.48 102.497a3.663 3.663 0 0 1-2.589-6.254l13.478-13.469a3.663 3.663 0 1 1 5.178 5.182l-13.478 13.469a3.654 3.654 0 0 1-2.589 1.072z"/></g></g></svg>