<svg width="212" height="212" viewBox="0 0 212 212" xmlns="http://www.w3.org/2000/svg"><title>sensor-rocker</title><g fill="#605F5E" fill-rule="evenodd"><path d="M61.372 61.365C44.978 77.759 23.182 86.787 0 86.787v11.572c26.273 0 50.975-10.231 69.553-28.811C88.133 50.97 98.365 26.271 98.364 0H86.792c0 23.181-9.027 44.973-25.42 61.365z"/><path d="M64.665 0H53.092c0 29.273-23.817 53.091-53.092 53.091v11.572c35.656 0 64.665-29.008 64.665-64.663zM155.523 165.586h4.953v22.471h-4.953zM169.219 46.864c-.604-1.462-1.443-2.704-2.523-3.729-1.077-1.028-2.358-1.815-3.84-2.365-1.48-.55-3.102-.825-4.854-.825-1.759 0-3.377.275-4.856.825-1.482.55-2.763 1.337-3.84 2.365-1.08 1.025-1.921 2.268-2.523 3.729-.604 1.458-.904 3.089-.904 4.886 0 1.797.301 3.429.904 4.887.604 1.461 1.443 2.704 2.523 3.729 1.077 1.029 2.356 1.816 3.84 2.366 1.479.55 3.099.825 4.856.825 1.754 0 3.375-.275 4.854-.825 1.48-.55 2.763-1.337 3.84-2.366 1.08-1.024 1.921-2.268 2.523-3.729.604-1.458.906-3.09.906-4.887 0-1.797-.303-3.428-.906-4.886zm-4.729 7.79a6.67 6.67 0 0 1-1.412 2.283 6.426 6.426 0 0 1-2.207 1.511c-.857.357-1.812.538-2.871.538-1.061 0-2.018-.181-2.873-.538a6.389 6.389 0 0 1-2.207-1.511 6.664 6.664 0 0 1-1.412-2.283c-.326-.877-.49-1.846-.49-2.904 0-1.035.164-2 .49-2.889a6.7 6.7 0 0 1 1.412-2.302 6.476 6.476 0 0 1 2.207-1.507c.855-.357 1.812-.539 2.873-.539 1.059 0 2.014.182 2.871.539a6.486 6.486 0 0 1 2.207 1.507 6.706 6.706 0 0 1 1.412 2.302c.328.889.49 1.854.49 2.889 0 1.058-.162 2.027-.49 2.904z"/><path d="M189.643 20.5h-63.285a3.856 3.856 0 0 0-3.856 3.857v179.286a3.856 3.856 0 0 0 3.856 3.856h63.285a3.857 3.857 0 0 0 3.857-3.856V24.357a3.857 3.857 0 0 0-3.857-3.857zm-59.143 7h56v83h-56v-83zm0 172v-84h56v84h-56z"/></g></svg>