<svg width="212" height="212" viewBox="0 0 212 212" xmlns="http://www.w3.org/2000/svg"><title>sensor-water</title><g fill="#605F5E" fill-rule="evenodd"><path d="M0 93.394V82.405c45.441 0 82.411-36.967 82.411-82.405h10.988C93.399 51.498 51.5 93.394 0 93.394z"/><path d="M0 61.398V50.41c27.797 0 50.412-22.614 50.412-50.41H61.4c0 33.855-27.544 61.398-61.4 61.398z"/><path d="M0 93.394V82.405c45.441 0 82.411-36.967 82.411-82.405h10.988C93.399 51.498 51.5 93.394 0 93.394z"/><path d="M0 61.398V50.41c27.797 0 50.412-22.614 50.412-50.41H61.4c0 33.855-27.544 61.398-61.4 61.398z"/><g><path d="M149.312 138.605c-7.258 0-11.015-3.756-14.031-6.773-2.571-2.573-4.43-4.432-8.374-4.432-3.941 0-5.8 1.857-8.37 4.43-3.018 3.02-6.773 6.775-14.036 6.775a4 4 0 0 1 0-8c3.946 0 5.806-1.858 8.378-4.433 3.018-3.018 6.771-6.772 14.027-6.772 7.259 0 11.015 3.757 14.031 6.774 2.571 2.572 4.431 4.431 8.373 4.431a4 4 0 0 1 .002 8z"/><path d="M194.123 138.605c-7.258 0-11.014-3.756-14.031-6.773-2.57-2.573-4.43-4.432-8.374-4.432-3.94 0-5.799 1.857-8.37 4.43-3.018 3.02-6.773 6.775-14.035 6.775a4 4 0 0 1 0-8c3.946 0 5.807-1.858 8.379-4.433 3.017-3.018 6.771-6.772 14.027-6.772 7.258 0 11.014 3.757 14.031 6.774 2.57 2.572 4.43 4.431 8.373 4.431a4 4 0 0 1 0 8zM104.501 138.605c-7.258 0-11.014-3.756-14.031-6.774-2.572-2.572-4.43-4.431-8.375-4.431-3.941 0-5.799 1.857-8.369 4.43-3.019 3.02-6.775 6.775-14.036 6.775a4 4 0 0 1 0-8c3.947 0 5.806-1.858 8.378-4.433 3.017-3.018 6.772-6.772 14.027-6.772 7.259 0 11.014 3.757 14.032 6.774 2.571 2.572 4.43 4.431 8.374 4.431a4 4 0 0 1 0 8z"/><g><path d="M149.312 168.126c-7.258 0-11.015-3.757-14.031-6.774-2.571-2.572-4.43-4.432-8.374-4.432-3.941 0-5.8 1.857-8.37 4.43-3.018 3.021-6.773 6.776-14.036 6.776a4 4 0 0 1 0-8c3.946 0 5.806-1.858 8.378-4.433 3.018-3.019 6.771-6.773 14.027-6.773 7.259 0 11.015 3.757 14.031 6.775 2.571 2.572 4.431 4.431 8.373 4.431a4 4 0 0 1 .002 8z"/><path d="M194.123 168.126c-7.258 0-11.014-3.757-14.031-6.774-2.57-2.572-4.43-4.432-8.374-4.432-3.94 0-5.799 1.857-8.37 4.43-3.018 3.021-6.773 6.776-14.035 6.776a4 4 0 0 1 0-8c3.946 0 5.807-1.858 8.379-4.433 3.017-3.019 6.771-6.773 14.027-6.773 7.258 0 11.014 3.757 14.031 6.775 2.57 2.572 4.43 4.431 8.373 4.431a4 4 0 0 1 0 8zM104.501 168.126c-7.258 0-11.014-3.757-14.031-6.774-2.572-2.572-4.43-4.432-8.375-4.432-3.941 0-5.799 1.857-8.369 4.43-3.019 3.02-6.775 6.776-14.036 6.776a4 4 0 0 1 0-8c3.947 0 5.806-1.858 8.378-4.433 3.017-3.019 6.772-6.773 14.027-6.773 7.259 0 11.014 3.757 14.032 6.775 2.571 2.572 4.43 4.431 8.374 4.431a4 4 0 0 1 0 8z"/></g><g><path d="M149.312 197.646c-7.258 0-11.015-3.758-14.031-6.774-2.571-2.573-4.43-4.433-8.374-4.433-3.941 0-5.8 1.858-8.37 4.431-3.018 3.021-6.773 6.776-14.036 6.776a4 4 0 0 1 0-8c3.946 0 5.806-1.859 8.378-4.434 3.018-3.018 6.771-6.773 14.027-6.773 7.259 0 11.015 3.758 14.031 6.775 2.571 2.572 4.431 4.432 8.373 4.432a4 4 0 0 1 .002 8z"/><path d="M194.123 197.646c-7.258 0-11.014-3.758-14.031-6.774-2.57-2.573-4.43-4.433-8.374-4.433-3.94 0-5.799 1.858-8.37 4.431-3.018 3.021-6.773 6.776-14.035 6.776a4 4 0 0 1 0-8c3.946 0 5.807-1.859 8.379-4.434 3.017-3.018 6.771-6.773 14.027-6.773 7.258 0 11.014 3.758 14.031 6.775 2.57 2.572 4.43 4.432 8.373 4.432a4 4 0 0 1 0 8zM104.501 197.646c-7.258 0-11.014-3.758-14.031-6.775-2.572-2.572-4.43-4.432-8.375-4.432-3.941 0-5.799 1.858-8.369 4.431-3.019 3.019-6.775 6.776-14.036 6.776a4 4 0 0 1 0-8c3.947 0 5.806-1.859 8.378-4.434 3.017-3.018 6.772-6.773 14.027-6.773 7.259 0 11.014 3.758 14.032 6.775 2.571 2.572 4.43 4.432 8.374 4.432a4 4 0 0 1 0 8z"/></g></g></g></svg>