<svg width="212" height="212" viewBox="0 0 212 212" xmlns="http://www.w3.org/2000/svg"><title>sensor-temp</title><g fill="#605F5E" fill-rule="evenodd"><path d="M148.809 197.396c-24.824 0-45.021-20.197-45.021-45.022 0-11.737 4.67-23.07 12.892-31.468V49.339c0-17.722 14.418-32.14 32.139-32.14 17.721 0 32.137 14.418 32.137 32.14v71.575c8.215 8.395 12.881 19.725 12.881 31.46-.003 24.825-20.2 45.022-45.028 45.022zm.007-169.208c-11.662 0-21.15 9.489-21.15 21.152v76.314l-1.785 1.634c-7.059 6.457-11.105 15.601-11.105 25.087 0 18.768 15.269 34.034 34.033 34.034 18.77 0 34.037-15.269 34.037-34.034 0-9.625-3.939-18.532-11.096-25.081l-1.785-1.634V49.34c0-11.664-9.486-21.152-21.149-21.152z"/><path d="M159.536 130.7V90.11h-21.458v40.594c-7.555 3.896-12.725 11.757-12.725 20.846 0 12.964 10.5 23.458 23.459 23.458 12.951 0 23.453-10.494 23.453-23.458.001-9.089-5.179-16.952-12.729-20.85z"/><g><path d="M0 93.394V82.405c45.441 0 82.411-36.967 82.411-82.405h10.988C93.399 51.498 51.5 93.394 0 93.394z"/><path d="M0 61.398V50.41c27.797 0 50.412-22.614 50.412-50.41H61.4c0 33.855-27.544 61.398-61.4 61.398z"/></g></g></svg>