<svg width="212" height="212" viewBox="0 0 212 212" xmlns="http://www.w3.org/2000/svg"><title>socket</title><g fill="#605F5E" fill-rule="evenodd"><path d="M106.6 40.6c-34.9 0-63.3 28.4-63.3 63.3 0 34.899 28.4 63.3 63.3 63.3s63.3-28.4 63.3-63.3-28.4-63.3-63.3-63.3zm10.6 118.2v-6.4c0-5.103-4.3-9.2-9.4-9.2-5.1 0-9.399 4.1-9.399 9.2v6.6C74 155.2 54.5 135.6 51.3 111c2.7-1.6 4.5-4.5 4.5-7.9 0-3.3-1.6-6.199-4.3-7.8 3.7-24 22.5-43 46.8-46.7v5.2c0 5 4.3 9.101 9.4 9.101 5.1 0 9.399-4.101 9.399-9.101v-5c22.5 4.1 41.301 22.9 44.9 46.4-2.7 1.6-4.8 4.5-4.8 7.899 0 3.4 2.3 6.4 5.1 8C159.3 135.2 139.8 154.5 117.2 158.8z"/><path d="M82.1 92.1c-6.5 0-11.8 5.301-11.8 11.801s5.3 11.8 11.8 11.8c6.5 0 11.801-5.301 11.801-11.8A11.76 11.76 0 0 0 82.1 92.1M131 92.1c-6.5 0-11.8 5.301-11.8 11.801s5.3 11.8 11.8 11.8c6.5 0 11.8-5.301 11.8-11.8.1-6.601-5.2-11.801-11.8-11.801"/><path d="M196 44.9C196 29 183.1 16 167.2 16H44.8C28.9 16 16 28.9 16 44.9v122.3C16 183 28.9 196 44.8 196h122.3c15.9 0 28.801-12.9 28.801-28.9L196 44.9zM184.8 167c0 9.7-8.2 17.7-17.899 17.7H44.6c-9.7 0-17.3-8-17.3-17.7V44.7c0-9.7 7.6-17.5 17.3-17.5h122.3c9.699 0 17.897 7.8 17.897 17.5L184.8 167z"/></g></svg>