<svg width="212" height="212" viewBox="0 0 212 212" xmlns="http://www.w3.org/2000/svg"><title>surveillance</title><g fill="#605F5E" fill-rule="evenodd"><path d="M105.6 36.299c38.298 0 69.398 31.101 69.398 69.4C175 144 143.898 175.1 105.6 175.1c-38.301 0-69.4-31.1-69.4-69.4 0-38.301 31.099-69.401 69.4-69.401m0-11.299C61.1 25 25 61.1 25 105.6c0 44.5 36.1 80.6 80.601 80.6 44.5 0 80.601-36.101 80.601-80.6C186.2 61.1 150.1 25 105.6 25"/><path d="M105.299 77.1c-2.5 0-5 .4-7.3 1 .8 1.5 1.3 3.3 1.3 5.199 0 5.9-4.8 10.801-10.699 10.801-3 0-5.601-1.2-7.601-3.1a28.229 28.229 0 0 0-4.101 14.699c0 15.7 12.701 28.4 28.4 28.4 15.701 0 28.4-12.701 28.4-28.4C133.7 90 121 77.1 105.299 77.1"/></g></svg>