<svg width="212" height="212" viewBox="0 0 212 212" xmlns="http://www.w3.org/2000/svg"><title>washing-machine</title><g fill="#605F5E" fill-rule="evenodd"><path d="M152.85 7h-93.4c-18.4 0-33.7 14.4-33.7 32.8v131.901c0 18.396 15.3 34.1 33.7 34.1h93.399c18.399 0 34.2-15.6 34.2-34.1V39.8C187.05 21.4 171.25 7 152.85 7zm-93.4 11.2h93.399c12.2 0 23 9.3 23 21.6V52H37.05V39.8c0-12.2 10.3-21.6 22.4-21.6zm93.4 176.3h-93.4c-12.2 0-22.4-10.6-22.4-22.799v-116h138.8V171.6c0 12.3-10.8 22.9-23 22.9z"/><path d="M105.05 42.6c3.6 0 6.6-2.9 6.6-6.6 0-3.6-2.9-6.6-6.6-6.6-3.601 0-6.601 2.9-6.601 6.6.001 3.7 2.9 6.6 6.601 6.6zm0-9.3c1.6 0 2.799 1.3 2.799 2.8 0 1.6-1.299 2.8-2.799 2.8a2.795 2.795 0 0 1-2.801-2.8c-.099-1.6 1.201-2.8 2.801-2.8zM82.45 42.6c3.6 0 6.601-2.9 6.601-6.6 0-3.6-2.901-6.6-6.601-6.6-3.6 0-6.6 2.9-6.6 6.6 0 3.7 3 6.6 6.6 6.6zm0-9.3c1.6 0 2.8 1.3 2.8 2.8 0 1.6-1.3 2.8-2.8 2.8-1.6 0-2.8-1.3-2.8-2.8-.001-1.6 1.3-2.8 2.8-2.8zM59.149 42.6c3.6 0 6.6-2.9 6.6-6.6 0-3.6-2.9-6.6-6.6-6.6-3.6 0-6.6 2.9-6.6 6.6.001 3.7 3.001 6.6 6.6 6.6zm0-9.3c1.6 0 2.8 1.3 2.8 2.8 0 1.6-1.3 2.8-2.8 2.8-1.6 0-2.8-1.3-2.8-2.8.001-1.6 1.201-2.8 2.8-2.8zM106.15 74.5c-28.8 0-52.2 23.4-52.2 52.201 0 28.799 23.4 52.199 52.2 52.199 28.801 0 52.301-23.301 52.301-52.199 0-28.9-23.5-52.201-52.301-52.201zm0 97c-24.7 0-44.7-20.1-44.7-44.799C61.45 102 81.55 82 106.15 82c24.7 0 44.7 20.1 44.7 44.701.101 24.699-20 44.799-44.7 44.799zM152.85 42.6c3.602 0 6.602-2.9 6.602-6.6 0-3.6-2.9-6.6-6.602-6.6-3.699 0-6.601 2.9-6.601 6.6.101 3.7 3.001 6.6 6.601 6.6zm0-9.3c1.602 0 2.801 1.3 2.801 2.8 0 1.6-1.301 2.8-2.801 2.8-1.601 0-2.8-1.3-2.8-2.8 0-1.6 1.3-2.8 2.8-2.8z"/><path d="M125.05 125.4c-1.603 1.6-2.801 2.801-5.399 2.801-2.6 0-3.801-1.201-5.4-2.801-1.699-1.699-3.899-3.9-8.1-3.9-4.1 0-6.301 2.201-8.1 3.9-1.601 1.6-2.801 2.801-5.4 2.801s-3.801-1.201-5.4-2.801c-1.7-1.699-3.9-3.9-8.1-3.9-4.1 0-6.3 2.201-8.1 3.9-.6.6-1.1 1.1-1.7 1.5l-.8.6v1c.9 20 17.3 35.701 37.299 35.701 20 0 36.4-15.701 37.301-35.701v-1l-.801-.6c-.601-.4-1.101-1-1.699-1.5-1.699-1.699-3.9-3.9-8.101-3.9-3.599 0-5.8 2.201-7.5 3.9zm14.7 3.9c-1.299 17.601-15.898 31.199-33.5 31.199-17.699 0-32.3-13.601-33.5-31.199l1.2-1.2c1.6-1.601 2.8-2.8 5.4-2.8 2.6 0 3.8 1.199 5.4 2.8 1.7 1.7 3.9 3.899 8.1 3.899 4.101 0 6.301-2.199 8.101-3.899 1.601-1.601 2.8-2.8 5.399-2.8 2.601 0 3.801 1.199 5.399 2.8 1.701 1.7 3.899 3.899 8.101 3.899 4.102 0 6.301-2.199 8.104-3.899 1.6-1.601 2.799-2.8 5.396-2.8 2.604 0 3.801 1.199 5.399 2.8.202.4.501.8 1.001 1.2z"/></g></svg>