<svg width="212" height="212" viewBox="0 0 212 212" xmlns="http://www.w3.org/2000/svg"><title>weather-station</title><g fill="#605F5E" fill-rule="evenodd"><path d="M45.8 106.477c.6 0 1.1-.101 1.7-.399 1.898-.9 2.6-3.2 1.699-5-1.801-3.601-2.699-7.5-2.699-11.601 0-14.5 11.8-26.2 26.199-26.2 8.301 0 15.899 3.801 21 10.399 1.301 1.7 3.601 2 5.301.7 1.699-1.2 2-3.601.699-5.3-6.399-8.5-16.301-13.4-26.899-13.4-18.601 0-33.8 15.101-33.8 33.801 0 5.199 1.199 10.199 3.5 14.899.6 1.3 2 2.101 3.3 2.101zM93.6 53.376c.601.3 1.2.5 1.9.5 1.3 0 2.6-.7 3.3-1.899l5.2-9.101c1-1.8.398-4.101-1.4-5.101s-4.1-.399-5.1 1.399l-5.2 9.101c-1.101 1.702-.5 4.002 1.3 5.101zM112.199 70.477c.601 0 1.301-.2 1.899-.5l9.101-5.2c1.801-1 2.398-3.3 1.398-5.101-1-1.8-3.3-2.399-5.1-1.399l-9.102 5.2c-1.8 1-2.398 3.3-1.398 5.101.603 1.199 1.903 1.899 3.202 1.899zM36.6 110.376c-1-1.8-3.3-2.399-5.1-1.399l-9.1 5.199c-1.8 1-2.398 3.301-1.398 5.102a3.858 3.858 0 0 0 3.3 1.898c.6 0 1.3-.199 1.899-.5l9.101-5.199c1.698-1 2.397-3.301 1.298-5.101zM31 89.477c0-2.101-1.7-3.801-3.801-3.801H16.8c-2.101 0-3.8 1.7-3.8 3.801s1.699 3.8 3.8 3.8h10.5c2.1-.101 3.7-1.701 3.7-3.8zM22.4 64.777l9.102 5.2c.6.3 1.199.5 1.898.5a3.86 3.86 0 0 0 3.301-1.899c1-1.801.399-4.101-1.399-5.101l-9.101-5.2c-1.801-1-4.101-.399-5.101 1.399-1.1 1.7-.5 4 1.3 5.101zM46.8 51.977a3.86 3.86 0 0 0 3.3 1.899c.601 0 1.3-.2 1.9-.5 1.8-1 2.398-3.3 1.398-5.101l-5.199-9.101c-1-1.8-3.301-2.399-5.101-1.399-1.8 1-2.399 3.301-1.399 5.101l5.101 9.101zM72.8 47.777c2.1 0 3.8-1.699 3.8-3.8v-10.5c0-2.101-1.7-3.801-3.8-3.801-2.101 0-3.8 1.7-3.8 3.801v10.5c0 2.099 1.699 3.8 3.8 3.8zM153.5 104.777c-6.4-16.899-22.801-28.199-41.102-28.199-15.8 0-30.3 8.399-38.1 21.899h-1.3c-16 0-29.301 13.101-30.2 29.5-5.8 3.801-9.3 10.301-9.3 17.301 0 11.398 9.3 20.699 20.699 20.699H58.3c3.2 0 5.8-2.601 5.8-5.801 0-3.199-2.6-5.8-5.8-5.8h-4.101a9.175 9.175 0 0 1-9.199-9.2c0-3.8 2.199-7.1 5.699-8.5 2.301-.898 3.699-3.199 3.601-5.6v-1.301c0-10.899 8.399-19.8 18.8-19.8 1.101 0 2.3.101 3.4.3.398.101.699.101 1.1.101 2.2 0 4.3-1.3 5.2-3.399 5.2-11.5 16.899-19 29.6-19 14.4 0 27.2 9.601 31.2 23.199.602 2.101 2.4 3.7 4.602 4.101 9.601 1.5 16.5 9.7 16.5 19.399 0 10.801-8.801 19.602-19.602 19.602h-1.2a5.807 5.807 0 0 0-5.801 5.801c0 3.199 2.602 5.8 5.801 5.8h1.199c17.2 0 31.102-14 31.102-31.101-.002-14.102-9.301-26.301-22.701-30.001z"/><path d="M102.8 127.477c-1.5-1.5-3.8-1.5-5.3 0l-9.301 9.301c-1.5 1.5-1.5 3.801 0 5.301.699.699 1.699 1.1 2.699 1.1 1 0 1.9-.398 2.7-1.1l9.3-9.301a3.773 3.773 0 0 0-.098-5.301zM77.699 147.376l-9.301 9.3c-1.5 1.5-1.5 3.801 0 5.301a3.87 3.87 0 0 0 2.7 1.102c1 0 1.9-.4 2.7-1.102l9.3-9.301c1.5-1.5 1.5-3.8 0-5.3-1.598-1.5-3.998-1.5-5.399 0zM75.8 167.977l-9.3 9.301c-1.5 1.5-1.5 3.801 0 5.301.699.699 1.699 1.1 2.699 1.1 1 0 1.899-.398 2.699-1.1l9.301-9.301c1.5-1.5 1.5-3.801 0-5.301-1.599-1.5-4-1.5-5.399 0zM95.699 148.076l-9.301 9.3c-1.5 1.5-1.5 3.8 0 5.3.7.7 1.7 1.102 2.7 1.102 1 0 1.9-.399 2.7-1.102l9.3-9.3c1.5-1.5 1.5-3.8 0-5.3-1.598-1.4-3.998-1.4-5.399 0zM131.1 142.076l9.301-9.301c1.5-1.5 1.5-3.801 0-5.301s-3.801-1.5-5.301 0l-9.3 9.301c-1.5 1.5-1.5 3.801 0 5.301.7.699 1.7 1.1 2.7 1.1 1 0 1.8-.399 2.6-1.1zM115.199 147.376l-9.301 9.3c-1.5 1.5-1.5 3.801 0 5.301a3.87 3.87 0 0 0 2.7 1.102c1 0 1.9-.4 2.7-1.102l9.3-9.301c1.5-1.5 1.5-3.8 0-5.3-1.598-1.5-3.998-1.5-5.399 0zM113.3 167.977l-9.3 9.301c-1.5 1.5-1.5 3.801 0 5.301.699.699 1.699 1.1 2.699 1.1 1 0 1.899-.398 2.699-1.1l9.301-9.301c1.5-1.5 1.5-3.801 0-5.301-1.599-1.5-4-1.5-5.399 0zM138.5 148.076c-1.5-1.5-3.801-1.5-5.301 0l-9.301 9.3c-1.5 1.5-1.5 3.8 0 5.3a3.861 3.861 0 0 0 2.699 1.102c1 0 1.9-.399 2.7-1.102l9.3-9.3c1.303-1.399 1.303-3.8-.097-5.3zM197.699 76.876h-5.801l4.301-4.3c.699-.7.699-1.9 0-2.7-.699-.7-1.899-.7-2.699 0l-7 7h-4c-.301-1.399-1.102-2.601-2-3.5 0-.101.1-.101.1-.2l2-3.399 9.5-2.5c1-.3 1.602-1.3 1.301-2.3-.301-1-1.301-1.601-2.301-1.301l-5.898 1.601 2.898-5c.5-.899.2-2-.699-2.601-.898-.5-2-.199-2.601.7l-2.899 5-1.601-5.899c-.3-1-1.3-1.601-2.3-1.301-1 .301-1.602 1.301-1.301 2.301l2.5 9.5-2 3.399c0 .101-.102.101-.102.2-.6-.2-1.3-.301-2-.301-.699 0-1.398.101-2 .301 0-.101-.1-.101-.1-.2l-2-3.399 2.5-9.5c.3-1-.303-2-1.303-2.301-1-.3-2 .301-2.299 1.301l-1.601 5.899-2.899-5c-.5-.899-1.701-1.2-2.601-.7-.9.5-1.2 1.7-.7 2.601l2.9 5-5.9-1.601c-1-.3-2 .301-2.3 1.301-.3 1 .3 2 1.3 2.3l9.5 2.5 2 3.399c0 .101.1.101.1.2-1 .899-1.697 2.2-2 3.5h-4l-7-7c-.697-.7-1.897-.7-2.697 0-.7.7-.7 1.899 0 2.7l4.3 4.3h-5.603c-1 0-1.897.8-1.897 1.899 0 1.101.8 1.899 1.897 1.899h5.803l-4.303 4.301c-.697.699-.697 1.899 0 2.699.4.4.803.5 1.303.5.5 0 1-.199 1.3-.5l7-7h4.098c.299 1.4 1.102 2.601 2 3.5 0 .101-.101.101-.101.2l-2 3.399-9.5 2.5c-1 .301-1.603 1.301-1.3 2.301.3 1 1.3 1.6 2.3 1.3l5.897-1.601-2.897 5c-.5.899-.2 2 .7 2.601.3.2.6.2.898.2.602 0 1.299-.301 1.602-.9l2.898-5 1.602 5.9c.197.8 1 1.399 1.8 1.399.2 0 .3 0 .5-.101 1-.3 1.601-1.3 1.3-2.3l-2.5-9.5 2-3.4c0-.1.1-.1.1-.199.603.199 1.303.3 2 .3.701 0 1.4-.101 2-.3 0 .101.103.101.103.199l2 3.4-2.5 9.5c-.3 1 .3 2 1.3 2.3.2 0 .301.101.5.101.801 0 1.602-.601 1.801-1.399l1.602-5.9 2.898 5c.301.601 1 .9 1.602.9.3 0 .6-.101.898-.2.899-.5 1.199-1.7.699-2.601l-2.898-5 5.898 1.601c1 .3 2-.3 2.301-1.3.301-1-.301-2-1.301-2.301l-9.5-2.5-2-3.399c0-.101-.1-.101-.1-.2 1-.899 1.697-2.199 2-3.5H186.594l7 7c.4.4.801.5 1.301.5.5 0 1-.199 1.299-.5.701-.699.701-1.899 0-2.699l-4.299-4.301h5.799c1 0 1.9-.8 1.9-1.899.006-1.099-.895-1.899-1.895-1.899zM171.4 78.777c0-2.101 1.699-3.8 3.801-3.8a3.798 3.798 0 0 1 3.801 3.8 3.801 3.801 0 0 1-7.602 0z"/></g></svg>