<svg width="212" height="212" viewBox="0 0 212 212" xmlns="http://www.w3.org/2000/svg"><title>window-blind</title><path d="M192.199 47.901c0-3.102-2.5-5.602-5.603-5.602H25.399a5.594 5.594 0 0 0-5.6 5.602v116.2c0 3.101 2.5 5.601 5.602 5.601H186.6c3.102 0 5.602-2.5 5.602-5.601l-.003-116.2zm-131.2 18.701h91.899v9.399H60.999v-9.399zm0-13.101h91.899v5.601H60.999v-5.601zm0 30h91.899v7.5H60.999v-7.5zm95.601 0h24.399v7.5H156.6v-7.5zm-125.601 0h26.2v7.5h-26.2v-7.5zm0 15h26.2v9.399h-26.2v-9.399zm30 0h91.899v9.399H60.999v-9.399zm95.601 0h24.399v9.399H156.6v-9.399zm0-31.899h24.399v9.399H156.6v-9.399zm-125.601 0h26.2v9.399h-26.2v-9.399zm0 48.798h26.2v7.5h-26.2v-7.5zm30 0h91.899v7.5H60.999v-7.5zm95.601 0h24.399v7.5H156.6v-7.5zm0-61.899h24.399v5.601H156.6v-5.601zm-125.601 0h26.2v5.601h-26.2v-5.601zm0 76.899h150v30h-150v-30z" fill="#605F5E" fill-rule="evenodd"/></svg>